<svg width="56px" height="66px" xmlns="http://www.w3.org/2000/svg" viewBox="0 0 52 59.43"><defs><style>.cls-1{fill:#784295;}</style></defs><title>course6</title><g id="Слой_2" data-name="Слой 2"><g id="Слой_1-2" data-name="Слой 1"><path class="cls-1" d="M39.62,11.14H36.5A11.48,11.48,0,0,0,36,10.06l2.21-2.21a1.24,1.24,0,0,0,0-1.75h0l-3.5-3.5A1.24,1.24,0,0,0,33,2.6h0L30.8,4.81a11.46,11.46,0,0,0-1.08-.45V1.24A1.24,1.24,0,0,0,28.48,0h-5a1.24,1.24,0,0,0-1.24,1.24h0V4.36a11.46,11.46,0,0,0-1.08.45L19,2.6a1.24,1.24,0,0,0-1.75,0h0l-3.5,3.5a1.24,1.24,0,0,0,0,1.75h0L16,10.06a11.45,11.45,0,0,0-.45,1.08H12.38a1.24,1.24,0,0,0-1.24,1.23h0v5a1.24,1.24,0,0,0,1.24,1.24H15.5A11.46,11.46,0,0,0,16,19.65l-2.21,2.21a1.24,1.24,0,0,0,0,1.75h0l3.5,3.5a1.24,1.24,0,0,0,1.75,0h0L21.2,24.9a11.46,11.46,0,0,0,1.08.45v3.12a1.24,1.24,0,0,0,1.24,1.24h5a1.24,1.24,0,0,0,1.24-1.24h0V25.36a11.49,11.49,0,0,0,1.08-.45L33,27.12a1.24,1.24,0,0,0,1.75,0h0l3.5-3.5a1.24,1.24,0,0,0,0-1.75h0L36,19.66a11.45,11.45,0,0,0,.45-1.08h3.12a1.24,1.24,0,0,0,1.24-1.24h0v-5a1.24,1.24,0,0,0-1.23-1.24Zm-1.24,5h-2.8a1.24,1.24,0,0,0-1.2.93,8.66,8.66,0,0,1-.92,2.23,1.24,1.24,0,0,0,.19,1.51l2,2-1.75,1.75-2-2a1.24,1.24,0,0,0-1.51-.19,8.67,8.67,0,0,1-2.23.92,1.24,1.24,0,0,0-.93,1.2v2.8H24.76v-2.8a1.24,1.24,0,0,0-.93-1.2,8.67,8.67,0,0,1-2.23-.92,1.24,1.24,0,0,0-1.51.19l-2,2-1.75-1.75,2-2a1.24,1.24,0,0,0,.19-1.51A8.67,8.67,0,0,1,17.61,17a1.24,1.24,0,0,0-1.2-.93h-2.8V13.62h2.8a1.24,1.24,0,0,0,1.2-.93,8.66,8.66,0,0,1,.92-2.23A1.24,1.24,0,0,0,18.34,9l-2-2,1.75-1.75,2,2a1.24,1.24,0,0,0,1.51.19,8.67,8.67,0,0,1,2.23-.92,1.24,1.24,0,0,0,.93-1.2V2.48h2.49v2.8a1.24,1.24,0,0,0,.93,1.2,8.67,8.67,0,0,1,2.23.92,1.24,1.24,0,0,0,1.51-.19l2-2L35.64,7l-2,2a1.24,1.24,0,0,0-.19,1.51,8.67,8.67,0,0,1,.92,2.23,1.24,1.24,0,0,0,1.2.93h2.8Z"/><path class="cls-1" d="M26,9.91a5,5,0,1,0,5,5h0A5,5,0,0,0,26,9.91Zm0,7.43a2.48,2.48,0,1,1,2.48-2.48h0A2.48,2.48,0,0,1,26,17.33Z"/><path class="cls-1" d="M17.33,31v2.44c0,4.12-2.22,7.46-5,7.46s-5-3.34-5-7.46V31.13a5.28,5.28,0,0,1,5-3.89V24.76A7.74,7.74,0,0,0,5,30.65,1.24,1.24,0,0,0,5,31v2.44c0,5.57,3.26,9.94,7.43,9.94s7.43-4.37,7.43-9.94V31Z"/><path class="cls-1" d="M18.57,43.33a2.33,2.33,0,0,1-2.48-2.48H13.62v.28a4.81,4.81,0,0,0,5,4.67h0a3.71,3.71,0,0,1,3.71,3.71v9.9h2.48v-9.9a6.2,6.2,0,0,0-6.19-6.19Z"/><path class="cls-1" d="M11.14,40.86H8.67a2.33,2.33,0,0,1-2.18,2.48h-.3A6.2,6.2,0,0,0,0,49.52v9.9H2.48v-9.9a3.71,3.71,0,0,1,3.71-3.71h.28a4.81,4.81,0,0,0,4.67-5h0Z"/><path class="cls-1" d="M5,50.76H7.43v8.67H5Z"/><path class="cls-1" d="M17.33,50.76h2.48v8.67H17.33Z"/><path class="cls-1" d="M47,30.65a7.74,7.74,0,0,0-7.39-5.89v2.48a5.28,5.28,0,0,1,5,3.89v2.27c0,4.12-2.22,7.46-5,7.46s-5-3.34-5-7.46V31H32.19v2.44c0,5.57,3.26,9.94,7.43,9.94S47,39,47,33.39V31a1.24,1.24,0,0,0,0-.3Z"/><path class="cls-1" d="M45.81,43.33a2.33,2.33,0,0,1-2.48-2.48H40.86v.28a4.81,4.81,0,0,0,5,4.67h0a3.71,3.71,0,0,1,3.71,3.71v9.9H52v-9.9a6.2,6.2,0,0,0-6.19-6.19Z"/><path class="cls-1" d="M38.38,40.86H35.91a2.33,2.33,0,0,1-2.18,2.48h-.3a6.2,6.2,0,0,0-6.19,6.19v9.9h2.48v-9.9a3.71,3.71,0,0,1,3.71-3.71h.28a4.81,4.81,0,0,0,4.67-5Z"/><path class="cls-1" d="M32.19,50.76h2.48v8.67H32.19Z"/><path class="cls-1" d="M44.57,50.76H47v8.67H44.57Z"/><path class="cls-1" d="M24.76,32.19h2.48v2.48H24.76Z"/><path class="cls-1" d="M24.76,37.14h2.48v2.48H24.76Z"/><path class="cls-1" d="M24.76,42.1h2.48v2.48H24.76Z"/></g></g></svg>