<svg width="71px" height="72px" xmlns="http://www.w3.org/2000/svg" viewBox="0 0 69.79 69.81"><defs><style>.cls-1{fill:#784295;}</style></defs><title>course1</title><g id="Слой_2" data-name="Слой 2"><g id="Слой_1-2" data-name="Слой 1"><path class="cls-1" d="M69.7,13.89a1.77,1.77,0,0,0-1.45-1.19L63.1,12A3.89,3.89,0,0,0,58,6.69l-.67-5.14a1.78,1.78,0,0,0-3-1L46.93,7.86a1.78,1.78,0,0,0-.5,1.54l1.19,7.39-.34.34a29.4,29.4,0,0,0-35-.62,1,1,0,1,0,1.15,1.7l0,0a27.31,27.31,0,0,1,32.29.42l-4.15,4.17a21.54,21.54,0,1,0,5.48,5.52l4.16-4.17A27.33,27.33,0,1,1,9,22.2a1,1,0,0,0-1.52-1.36,29.38,29.38,0,1,0,45.27,1.8l.26-.26,7.38,1.18a1.78,1.78,0,0,0,1.54-.5l1.58-1.58A1,1,0,0,0,62.07,20l-1.48,1.48-5.76-.92,6.7-6.7,5.91.77-.89.89A1,1,0,1,0,68,17l1.27-1.27a1.77,1.77,0,0,0,.43-1.83ZM55.32,2.35l.77,5.91L49.39,15l-.92-5.76ZM48.85,40.43a19.49,19.49,0,1,1-8.67-16.19L35.93,28.5A13.62,13.62,0,1,0,41.4,34l4.26-4.28a19.36,19.36,0,0,1,3.19,10.67ZM27.48,42.48a3.89,3.89,0,0,0,5.5,0L34.43,41a5.09,5.09,0,1,1-5.33-5.67L27.47,37a3.9,3.9,0,0,0,0,5.5Zm-5.23-2.05a7.13,7.13,0,1,0,14.13-1.37l3.49-3.5A11.58,11.58,0,1,1,34.42,30L31,33.48a7.13,7.13,0,0,0-8.73,7Zm9.28.6a1.84,1.84,0,0,1-2.6-2.6L58.38,8.88a1.84,1.84,0,0,1,2.6,2.6Z"/></g></g></svg>