<svg width="62px" height="56px" xmlns="http://www.w3.org/2000/svg" viewBox="0 0 512 468.5"><defs><style>.cls-1{fill:#784295;}</style></defs><title>course5</title><g id="Слой_2" data-name="Слой 2"><g id="Слой_1-2" data-name="Слой 1"><path class="cls-1" d="M463.3,0H126.2a7.6,7.6,0,0,0,0,15.2H463.3a33.5,33.5,0,0,1,33.5,33.5V319.3a33.5,33.5,0,0,1-33.5,33.5H48.7a33.5,33.5,0,0,1-33.5-33.5V48.7A33.5,33.5,0,0,1,48.7,15.2H95.8A7.6,7.6,0,0,0,95.8,0H48.7A48.82,48.82,0,0,0,0,48.7V319.3A48.76,48.76,0,0,0,48.7,368H171l-14.9,48.7H128.2a25.9,25.9,0,1,0,0,51.8H383.9a25.9,25.9,0,1,0,0-51.8H356L341,368H463.3A48.76,48.76,0,0,0,512,319.3V48.7A48.82,48.82,0,0,0,463.3,0ZM394.5,442.5a10.61,10.61,0,0,1-10.6,10.6H128.2a10.6,10.6,0,0,1,0-21.2H383.9A10.67,10.67,0,0,1,394.5,442.5ZM340,416.7H172L186.9,368H325.1Z"/><path class="cls-1" d="M463.8,247.5a7.6,7.6,0,0,0,7.6-7.6V48.7a8.24,8.24,0,0,0-8.2-8.2H48.7a8.15,8.15,0,0,0-8.1,8.2V296.5a7.6,7.6,0,0,0,7.6,7.6H463.9a7.6,7.6,0,0,0,7.6-7.6V270.3a7.6,7.6,0,1,0-15.2,0v18.6H55.8V55.8H456.3V240A7.43,7.43,0,0,0,463.8,247.5Z"/><path class="cls-1" d="M262.3,322.9a7.63,7.63,0,0,0-13.9,3.5c-.7,6.9,7.8,11,12.8,6.2A7.61,7.61,0,0,0,262.3,322.9Z"/></g></g></svg>