<svg width="72px" height="48px" xmlns="http://www.w3.org/2000/svg" viewBox="0 0 505.4 320.9"><defs><style>.cls-1{fill:#784295;}</style></defs><title>course4</title><g id="Слой_2" data-name="Слой 2"><g id="Слой_1-2" data-name="Слой 1"><path class="cls-1" d="M437.1,141.2a57.7,57.7,0,1,0-66.2,0,100,100,0,0,0-34.1,20A129.37,129.37,0,0,0,290,135.7a73.1,73.1,0,1,0-75.6,0,130.44,130.44,0,0,0-46.3,25.2,100.79,100.79,0,0,0-33.7-19.6,57.7,57.7,0,1,0-66.2,0A101.38,101.38,0,0,0,0,237v6.6a.43.43,0,0,0,.4.4H122.7a134.5,134.5,0,0,0-1.1,16.9v6.8a53.18,53.18,0,0,0,53.2,53.2h155A53.18,53.18,0,0,0,383,267.7v-6.8a134.5,134.5,0,0,0-1.1-16.9H505a.43.43,0,0,0,.4-.4V237a101.77,101.77,0,0,0-68.3-95.8ZM362.3,93.9a41.7,41.7,0,1,1,42.5,41.7h-1.6a41.64,41.64,0,0,1-40.9-41.7ZM194.9,73.2a57.1,57.1,0,1,1,60.4,57h-6.6A57.25,57.25,0,0,1,194.9,73.2ZM59.3,93.9a41.7,41.7,0,1,1,42.5,41.7h-1.6A41.71,41.71,0,0,1,59.3,93.9Zm66.2,134H16.2a85.44,85.44,0,0,1,84.2-76.3h1.2a84.55,84.55,0,0,1,54.5,20.3A132.48,132.48,0,0,0,125.5,227.9Zm241.3,39.9A37.26,37.26,0,0,1,329.6,305h-155a37.26,37.26,0,0,1-37.2-37.2V261A114.87,114.87,0,0,1,248.7,146.3c1.1.1,2.3.1,3.4.1s2.3,0,3.4-.1A114.87,114.87,0,0,1,366.8,261Zm11.9-39.9a131,131,0,0,0-30.3-55.6,85,85,0,0,1,55-20.7h1.2a85.44,85.44,0,0,1,84.2,76.3Z"/></g></g></svg>