<svg width="64px" height="64px" xmlns="http://www.w3.org/2000/svg" viewBox="0 0 61.69 61.37"><defs><style>.cls-1{fill:#784295;}</style></defs><title>course2</title><g id="Слой_2" data-name="Слой 2"><g id="Слой_1-2" data-name="Слой 1"><path class="cls-1" d="M16.16,33.65a2,2,0,0,1,2,2h2a4,4,0,0,0-3-3.82V29.69h-2v2.12a4,4,0,0,0,1,7.78,2,2,0,1,1-2,2h-2a4,4,0,0,0,3,3.82v2.12h2V45.39a4,4,0,0,0-1-7.78,2,2,0,0,1-.09-4h.09Z"/><path class="cls-1" d="M56.74,0H15.17a5,5,0,0,0-4.95,4.95V27.2a12.85,12.85,0,0,0,1.66,23.52l-5.23,1a6.9,6.9,0,0,0-5.3,4.89L0,61.37H32.32L31,56.66a6.9,6.9,0,0,0-5.3-4.89l-5.23-1A12.92,12.92,0,0,0,28,43.55h28.7a5,5,0,0,0,4.95-5V4.95A5,5,0,0,0,56.74,0ZM18.14,51.47a2,2,0,0,1-4,.09s0-.06,0-.09V51.3a12.8,12.8,0,0,0,2,.17,12.92,12.92,0,0,0,2-.17ZM29.07,57.2l.63,2.19H24.85L24,56.18l-1.92.48.68,2.73H9.51l.68-2.73-1.92-.48-.8,3.21H2.63l.62-2.19A4.93,4.93,0,0,1,7,53.71l5.34-1.07a4,4,0,0,0,7.56,0l5.34,1.07A4.93,4.93,0,0,1,29.07,57.2ZM16.16,49.49A10.89,10.89,0,1,1,27,38.6,10.89,10.89,0,0,1,16.16,49.49ZM59.71,38.6a3,3,0,0,1-3,3H28.67A12.85,12.85,0,0,0,12.2,26.36V4.95a3,3,0,0,1,3-3H56.74a3,3,0,0,1,3,3Z"/><path class="cls-1" d="M55.75,17.82H49.81v19.8h-2V21.77H41.9V37.62h-2V25.73H34V37.62H32v2H57.73v-2h-2Zm-4,2h2V37.62h-2Zm-7.92,4h2V37.62h-2Zm-7.92,4h2v9.9H36Z"/><path class="cls-1" d="M18.14,4H27v2H18.14Z"/><path class="cls-1" d="M18.14,7.92H27v2H18.14Z"/><path class="cls-1" d="M18.14,11.88H27v2H18.14Z"/><path class="cls-1" d="M18.14,15.84H27v2H18.14Z"/><path class="cls-1" d="M23.09,37.61h2v2h-2Z"/><path class="cls-1" d="M7.25,37.61h2v2h-2Z"/><path class="cls-1" d="M14.18,4h2v2h-2Z"/><path class="cls-1" d="M14.18,7.92h2v2h-2Z"/><path class="cls-1" d="M14.18,11.88h2v2h-2Z"/><path class="cls-1" d="M14.18,15.84h2v2h-2Z"/><path class="cls-1" d="M54.76,4a3,3,0,0,0-3,3,2.94,2.94,0,0,0,.15.88L48.49,10.4a2.93,2.93,0,0,0-3.41.1l-1.3-.87a3,3,0,1,0-5.84-.72,2.92,2.92,0,0,0,.3,1.27l-2,2a3,3,0,1,0,1.4,1.4l2-2a2.9,2.9,0,0,0,3-.3l1.3.87a2.91,2.91,0,0,0-.1.72,3,3,0,0,0,5.94,0,2.94,2.94,0,0,0-.15-.88L53.12,9.4A3,3,0,1,0,54.76,4ZM35,15.84a1,1,0,1,1,1-1,1,1,0,0,1-1,1ZM40.9,9.9a1,1,0,1,1,1-1,1,1,0,0,1-1,1Zm5.94,4a1,1,0,1,1,1-1A1,1,0,0,1,46.84,13.86Zm7.92-5.94a1,1,0,1,1,1-1,1,1,0,0,1-1,1Z"/></g></g></svg>