<svg width="62px" height="62px" xmlns="http://www.w3.org/2000/svg" viewBox="0 0 48.67 48.67"><defs><style>.cls-1{fill:#784295;}</style></defs><title>course3</title><g id="Слой_2" data-name="Слой 2"><g id="Слой_1-2" data-name="Слой 1"><path class="cls-1" d="M39.57,10.61,37.26,8.3l-2.31,2.31L33.87,9.54l3.39-3.39,3.39,3.39Z"/><path class="cls-1" d="M36.5,7.6H38V16H36.5Z"/><path class="cls-1" d="M41.06,25.85H39.54V22.58a11.41,11.41,0,1,0-4.56,0v3.27H33.46V47.15h-3V22.81h-7.6V47.15h-3V28.9h-7.6V47.15h-3V36.5H1.52V47.15H0v1.52H48.67V47.15h-7.6ZM7.6,47.15H3V38H7.6Zm10.65,0H13.69V30.42h4.56Zm10.65,0H24.33V24.33h4.56ZM27.37,11.4a9.88,9.88,0,1,1,11.3,9.78l-.65.09v4.57H36.5V21.28l-.65-.09A9.93,9.93,0,0,1,27.37,11.4ZM39.54,47.15H35V27.37h4.56Z"/><path class="cls-1" d="M45.62,11.41a8.36,8.36,0,1,0-8.36,8.36,8.36,8.36,0,0,0,8.36-8.36Zm-15.21,0a6.84,6.84,0,1,1,6.84,6.84h0A6.84,6.84,0,0,1,30.42,11.41Z"/><path class="cls-1" d="M10.94,25.85h5.34l6.53-6.53v2h1.52V16.73H19.77v1.52h2l-6.08,6.08H10.35L.25,33.66l1,1.11Z"/><path class="cls-1" d="M44.1,25.85h4.56v1.52H44.1Z"/><path class="cls-1" d="M44.1,28.9h4.56v1.52H44.1Z"/><path class="cls-1" d="M44.1,31.94h4.56v1.52H44.1Z"/><path class="cls-1" d="M44.1,35h4.56V36.5H44.1Z"/><path class="cls-1" d="M44.1,38h4.56v1.52H44.1Z"/><path class="cls-1" d="M44.1,41.06h4.56v1.52H44.1Z"/><path class="cls-1" d="M44.1,44.1h4.56v1.52H44.1Z"/></g></g></svg>