<svg xmlns="http://www.w3.org/2000/svg" xmlns:xlink="http://www.w3.org/1999/xlink" viewBox="0 0 694.96 640.61"><defs><style>.cls-1{mask:url(#mask);filter:url(#luminosity-noclip-2);}.cls-2{mix-blend-mode:multiply;fill:url(#linear-gradient);}.cls-3{fill:url(#Новый_образец_градиентной_залив);}.cls-4{fill:url(#Новый_образец_градиентной_залив-2);}.cls-5{fill:url(#Новый_образец_градиентной_залив-3);}.cls-6{fill:url(#Новый_образец_градиентной_залив-4);}.cls-7{fill:url(#Новый_образец_градиентной_залив-5);}.cls-32,.cls-8{fill:#fff;}.cls-9{fill:url(#Новый_образец_градиентной_залив-6);}.cls-10{fill:url(#Новый_образец_градиентной_залив-7);}.cls-11{fill:url(#linear-gradient-2);}.cls-12{mask:url(#mask-2);}.cls-13{fill:url(#Безымянный_градиент_13);}.cls-14{fill:#5e2775;}.cls-15{fill:url(#Безымянный_градиент_13-2);}.cls-16{fill:#87ba0b;}.cls-17{fill:#d9d9d9;opacity:0.72;}.cls-18{fill:#fe7302;}.cls-19{fill:#eea886;}.cls-20{fill:#c4c6d1;}.cls-21,.cls-30{fill:#363438;}.cls-22{fill:url(#Безымянный_градиент_9);}.cls-23{fill:#a77860;}.cls-24{fill:url(#Безымянный_градиент_13-3);}.cls-25{fill:#c98462;}.cls-26{fill:url(#Безымянный_градиент_9-2);}.cls-27{fill:url(#Безымянный_градиент_9-3);}.cls-28{fill:#212023;}.cls-28,.cls-29,.cls-30,.cls-31,.cls-32{fill-rule:evenodd;}.cls-29{fill:#f79961;}.cls-31{fill:#392515;}.cls-33{filter:url(#luminosity-noclip);}</style><filter id="luminosity-noclip" x="461.25" y="-6165.1" width="93.58" height="32766" filterUnits="userSpaceOnUse" color-interpolation-filters="sRGB"><feFlood flood-color="#fff" result="bg"/><feBlend in="SourceGraphic" in2="bg"/></filter><mask id="mask" x="461.25" y="-6165.1" width="93.58" height="32766" maskUnits="userSpaceOnUse"><g class="cls-33"/></mask><linearGradient id="linear-gradient" x1="461.25" y1="578.22" x2="554.83" y2="578.22" gradientUnits="userSpaceOnUse"><stop offset="0" stop-color="#fff"/><stop offset="0.99"/></linearGradient><linearGradient id="Новый_образец_градиентной_залив" x1="492.53" y1="427.33" x2="658.62" y2="427.33" gradientUnits="userSpaceOnUse"><stop offset="0" stop-color="#87ba0b"/><stop offset="1" stop-color="#dcf0ad"/></linearGradient><linearGradient id="Новый_образец_градиентной_залив-2" x1="478.1" y1="403.12" x2="694.96" y2="403.12" xlink:href="#Новый_образец_градиентной_залив"/><linearGradient id="Новый_образец_градиентной_залив-3" x1="428.27" y1="370.31" x2="568.15" y2="370.31" xlink:href="#Новый_образец_градиентной_залив"/><linearGradient id="Новый_образец_градиентной_залив-4" x1="467.15" y1="400.56" x2="509.56" y2="400.56" xlink:href="#Новый_образец_градиентной_залив"/><linearGradient id="Новый_образец_градиентной_залив-5" x1="371.16" y1="408.96" x2="508.08" y2="408.96" xlink:href="#Новый_образец_градиентной_залив"/><linearGradient id="Новый_образец_градиентной_залив-6" x1="541.34" y1="421.64" x2="643.99" y2="164.08" xlink:href="#Новый_образец_градиентной_залив"/><linearGradient id="Новый_образец_градиентной_залив-7" x1="504.71" y1="486.96" x2="555.33" y2="486.96" xlink:href="#Новый_образец_градиентной_залив"/><linearGradient id="linear-gradient-2" x1="461.25" y1="578.22" x2="554.83" y2="578.22" gradientUnits="userSpaceOnUse"><stop offset="0" stop-color="#bad0de"/><stop offset="1" stop-color="#f5f2ff"/></linearGradient><filter id="luminosity-noclip-2" x="461.25" y="536.3" width="93.58" height="83.84" filterUnits="userSpaceOnUse" color-interpolation-filters="sRGB"><feFlood flood-color="#fff" result="bg"/><feBlend in="SourceGraphic" in2="bg"/></filter><mask id="mask-2" x="461.25" y="536.3" width="93.58" height="83.84" maskUnits="userSpaceOnUse"><g class="cls-1"><path class="cls-2" d="M554.83,536.3s-48.65,9.13-48.65,83.84H483.35l-22.1-83.84Z"/></g></mask><linearGradient id="Безымянный_градиент_13" x1="461.25" y1="578.22" x2="554.83" y2="578.22" gradientUnits="userSpaceOnUse"><stop offset="0" stop-color="#6f368e"/><stop offset="1" stop-color="#ad8ac2"/></linearGradient><linearGradient id="Безымянный_градиент_13-2" x1="171.91" y1="276.28" x2="486.44" y2="276.28" xlink:href="#Безымянный_градиент_13"/><linearGradient id="Безымянный_градиент_9" y1="219.06" x2="236.53" y2="219.06" gradientUnits="userSpaceOnUse"><stop offset="0" stop-color="#fe7302"/><stop offset="1" stop-color="#ffd255"/></linearGradient><linearGradient id="Безымянный_градиент_13-3" x1="12.98" y1="231.23" x2="117.6" y2="231.23" gradientTransform="translate(-61.88 27.37) rotate(-16.19)" xlink:href="#Безымянный_градиент_13"/><linearGradient id="Безымянный_градиент_9-2" x1="13.08" y1="212.8" x2="84.03" y2="212.8" xlink:href="#Безымянный_градиент_9"/><linearGradient id="Безымянный_градиент_9-3" x1="80.34" y1="130.72" x2="123.94" y2="130.72" xlink:href="#Безымянный_градиент_9"/></defs><title>goals</title><g id="Слой_2" data-name="Слой 2"><g id="Слой_1-2" data-name="Слой 1"><path class="cls-3" d="M494.73,556.14c-8.77-40.08,10.18-50.09,28.51-59.76,15-7.9,29.12-15.37,28.37-39-1-31.32,20.33-42.71,39.15-52.76,14-7.48,27.23-14.54,29.2-28.79,4.75-34.29,36.37-76.9,36.69-77.33l2,1.47c-.31.42-31.56,42.54-36.22,76.19-2.14,15.49-15.91,22.84-30.47,30.62-19.08,10.19-38.81,20.73-37.86,50.52.8,25.16-14.69,33.33-29.68,41.24-18.32,9.67-35.63,18.8-27.26,57.06Z"/><path class="cls-4" d="M504.36,545.93c-.42,0-.84,0-1.27,0-7.93-.59-15.7-6.61-24.45-19l-.55-.77.61-.73c.14-.17,14.18-17.27,9-49.38a150.25,150.25,0,0,0-4.1-17.83c-1.88-6.72-3.13-11.16-1-14.7,2.65-4.5,9.8-6.85,30-11.65,21.46-5.11,28.63-29.29,35-50.62,6-20.09,11.61-39,28.3-38.45,15.34.58,38.65-23.46,59.2-44.65,19.08-19.67,37.08-38.19,48.59-37.83a9.18,9.18,0,0,1,6.93,3.44c10.26,12.22.69,30.76-8.57,48.69-7.9,15.3-15.36,29.75-10.56,39.27,6,12,6.88,22.81,2.44,31.33-5.25,10.08-17.49,16.59-36.38,19.32-17.27,2.5-19.14,21.34-21.12,41.28-2.31,23.27-4.92,49.65-33.9,52.15-21.52,1.86-36,17-48.83,30.3C523.45,536.72,514.6,545.93,504.36,545.93Zm-23.19-19.67c8,11,15.21,16.67,22.1,17.18,9.63.71,18.41-8.43,28.58-19,13.1-13.64,27.95-29.1,50.39-31,27-2.33,29.35-26.54,31.67-50,2.07-20.93,4-40.69,23.2-43.47,18.06-2.62,29.69-8.68,34.55-18,4.06-7.79,3.21-17.85-2.46-29.09-5.37-10.65,2.37-25.64,10.57-41.5,8.89-17.22,18.08-35,8.87-46a6.74,6.74,0,0,0-5.14-2.57c-10.41-.35-28.06,17.82-46.74,37.09-21.66,22.33-44,45.4-60.43,45.4h-.63c-14.81-.55-19.93,16.71-25.86,36.7-6.52,22-13.91,46.87-36.75,52.31-18.22,4.34-26.2,6.76-28.4,10.51-1.56,2.64-.48,6.47,1.29,12.8a152.31,152.31,0,0,1,4.16,18.11C494.94,505.5,483.95,522.52,481.18,526.25Z"/><path class="cls-5" d="M505.26,537.53c-.29,0-.57,0-.86,0-13-1.18-23-29.66-32.66-57.2-4.59-13.06-8.92-25.4-13.14-33.32-3.27-6.14-7.43-12.55-11.45-18.75-10.71-16.5-21.78-33.56-18.18-48.54,1.9-7.88,7.55-14.43,17.28-20,21.3-12.28,18-19.21,10.85-34.4-5.27-11.15-12.49-26.42-12.77-50.45-.12-10.33-.36-19.26-.57-27.13-.68-25.32-1-38,4.39-42.63,2.24-1.9,5.37-2.39,9.86-1.54,7.67,1.46,11,7.65,14.5,14.21,4.48,8.36,9.56,17.84,24.88,21,14.38,3,28.21,7.11,32,16.66,2.68,6.72.14,15.55-7.77,27-1.92,2.78-2.58,5.14-2,7.22,1.25,4.61,8.42,8,16.71,11.83C548.14,307,562.83,313.83,567,328c3.35,11.44-.53,25.71-11.86,43.63-26.81,42.38-25.74,71.12-24.79,96.48.71,18.79,1.37,36.54-10,56.37C515.38,533.26,510.42,537.53,505.26,537.53Zm-51.09-332a6.55,6.55,0,0,0-4.43,1.36c-4.51,3.84-4.16,16.93-3.52,40.7.21,7.89.45,16.83.57,27.17.27,23.49,7.36,38.48,12.53,49.43,7.12,15.07,11.42,24.17-11.84,37.58-9.12,5.25-14.39,11.3-16.12,18.49-3.36,13.95,7.43,30.56,17.85,46.63,4,6.24,8.24,12.69,11.56,18.93,4.31,8.09,8.67,20.51,13.28,33.67C483,505,493.19,534,504.62,535c4.36.39,8.95-3.56,13.64-11.76,11-19.22,10.36-35.83,9.64-55.06-1-25.72-2.06-54.86,25.16-97.89,10.94-17.29,14.72-30.9,11.58-41.62-3.85-13.13-17.39-19.45-29.34-25-8.85-4.13-16.49-7.69-18-13.41-.77-2.82,0-5.85,2.36-9.26,7.41-10.73,9.86-18.81,7.51-24.71-3.4-8.5-17.2-12.44-30.25-15.17-16.44-3.44-22-13.89-26.54-22.29-3.37-6.29-6.27-11.71-12.79-13A18.23,18.23,0,0,0,454.16,205.54Z"/><path class="cls-6" d="M505.51,552.73l-2.34-.74c13.11-41.42-10.6-134.36-17.66-157-3.47-11.12-.26-27.87,2.84-44.06,4-20.91,8.16-42.53-2.42-50.64-19.86-15.22-18.81-50.44-18.76-51.93l2.45.09c0,.35-1,35.45,17.8,49.9,11.78,9,7.48,31.41,3.33,53-3,15.89-6.2,32.33-2.91,42.86C496.59,422.25,518.59,511.4,505.51,552.73Z"/><path class="cls-7" d="M406.39,283.68c-5.46-13.85-26.76-11.75-24.81,7.83s15.67,40.47-5.22,73.76S403.13,405.09,420.1,426s22.85,49.61,37.21,67.89,24.15,62,35.9,45.69.69-37.54,2-66.92,27.45-48,1.3-66.9S444.07,381,452.7,338.32C456.51,319.48,423.36,326.76,406.39,283.68Z"/><path class="cls-8" d="M512.23,543.34c-.14-.87-14.66-86.91-47.16-110.49-33.14-24-39.16-46.26-50.74-98.64l2.39-.53c11.43,51.73,17.37,73.67,49.79,97.19,33.32,24.17,47.55,108.5,48.14,112.08Z"/><path class="cls-9" d="M482.91,540.26s9.66-23.88-7.92-57.83-31.8-28.73,10.56-54.84.27-108.37,36.33-118.82,67.4-143.59,94.82-126.63S607.57,264.37,627.16,284s22.2,44.51-18.28,64.69,28.73,97.22-26.11,120.72S543.65,585,482.91,540.26Z"/><path class="cls-8" d="M499.66,565.59c-.06-.3-6-30.88,12.67-70.4,19-40.25,28.06-84.26,24.3-117.71-2-18.12,9.57-25.2,20.79-32.06,11.05-6.75,22.48-13.72,21.85-31.58-.57-16.13,6.26-53.93,6.55-55.53l2.41.44c-.07.39-7.07,39.15-6.51,55,.68,19.28-11.37,26.64-23,33.75-11.06,6.75-21.5,13.13-19.63,29.69,3.81,33.89-5.35,78.39-24.52,119C496.29,535,502,564.8,502.06,565.1Z"/><path class="cls-8" d="M544,396.85c12.32-11.44,28.6-13.09,25.21,3.88s-15,21.82-9.21,32.48,15.51,21.33-1,34.42-25.69,14.54-30.54,39.27-3.88,41.61-25.21,42.66-13.09-30.06-6.3-44.12a46.64,46.64,0,0,0,3.39-37.11c-6.79-21.07-19.88-32.44,7.76-39.6S535.67,404.56,544,396.85Z"/><path class="cls-10" d="M504.79,565.37c-.07-3-1.53-74.25,11.79-86.24,13.61-12.25,16.22-33.88,16.57-45.69.45-15.39,20.33-24.52,21.18-24.9l1,2.24c-.19.09-19.33,8.89-19.73,22.74-.44,14.9-3.81,35.23-17.38,47.44-12.49,11.24-11,83.63-11,84.36Z"/><polygon class="cls-11" points="554.83 536.3 532.73 620.14 483.35 620.14 461.25 536.3 554.83 536.3"/><g class="cls-12"><path class="cls-13" d="M554.83,536.3s-48.65,9.13-48.65,83.84H483.35l-22.1-83.84Z"/></g><rect class="cls-14" x="435.08" y="185.64" width="9.56" height="434.5"/><rect class="cls-14" x="213.7" y="185.64" width="9.56" height="434.5"/><rect class="cls-15" x="171.91" y="4.13" width="314.53" height="544.3" rx="28.69" ry="28.69"/><rect class="cls-8" x="180.54" y="12.89" width="297.27" height="514.27" rx="28.35" ry="28.35"/><rect class="cls-14" x="282.31" width="93.73" height="21.16"/><rect class="cls-16" x="203.68" y="130" width="47.21" height="47.21" rx="9.37" ry="9.37"/><rect class="cls-17" x="268.55" y="67.48" width="163.34" height="14.66" rx="4.87" ry="4.87"/><rect class="cls-17" x="268.55" y="91.19" width="186.11" height="14.66" rx="4.87" ry="4.87"/><rect class="cls-18" x="203.68" y="63.06" width="47.21" height="47.21" rx="9.37" ry="9.37"/><path class="cls-17" d="M272.77,134.43H387.09a4.23,4.23,0,0,1,4.23,4.23v6.21a4.22,4.22,0,0,1-4.22,4.22H272.77a4.23,4.23,0,0,1-4.23-4.23v-6.21A4.23,4.23,0,0,1,272.77,134.43Z"/><rect class="cls-17" x="268.55" y="158.13" width="151.01" height="14.66" rx="4.39" ry="4.39"/><rect class="cls-17" x="268.55" y="201.37" width="178.12" height="14.66" rx="5.09" ry="5.09"/><rect class="cls-17" x="268.55" y="225.07" width="163.34" height="14.66" rx="4.57" ry="4.57"/><rect class="cls-16" x="203.68" y="196.95" width="47.21" height="47.21" rx="9.37" ry="9.37"/><rect class="cls-16" x="203.68" y="334.23" width="47.21" height="47.21" rx="9.37" ry="9.37"/><rect class="cls-17" x="268.55" y="271.71" width="163.34" height="14.66" rx="4.87" ry="4.87"/><rect class="cls-17" x="268.55" y="295.41" width="186.11" height="14.66" rx="4.87" ry="4.87"/><rect class="cls-16" x="203.68" y="267.29" width="47.21" height="47.2" rx="9.37" ry="9.37"/><rect class="cls-17" x="268.55" y="338.65" width="122.77" height="14.66" rx="4.23" ry="4.23"/><rect class="cls-17" x="268.55" y="362.35" width="151.01" height="14.66" rx="4.39" ry="4.39"/><rect class="cls-17" x="268.55" y="405.59" width="178.12" height="14.66" rx="5.09" ry="5.09"/><rect class="cls-17" x="268.55" y="429.29" width="163.34" height="14.66" rx="4.57" ry="4.57"/><rect class="cls-16" x="203.68" y="401.17" width="47.21" height="47.21" rx="9.37" ry="9.37"/><path class="cls-19" d="M228.68,293.19s3.87,8.82,7.57,7.71,9.2-.78,10.93-.59c2.31.25,9.81-1.51,9.37,1.3s-12.25,3.47-14.72,4.08,6.41,6.89,7,9.3-11.78,16.41-17.32,11.4-7.83-14-9-14.71-6.25-7.87-6.25-7.87Z"/><path class="cls-19" d="M247.86,313.52S263.7,330,263.76,332s-1,2.8-2.52,1.32-15.81-15.46-15.81-15.46,15.18,22.65,15.6,24.26c.24.94-1.64,2.62-2.56,1.9s-17.34-22.28-17.34-22.28,14.14,21.18,14.06,22.64a1.91,1.91,0,0,1-3.35.92c-1.16-1.5-15.48-20.39-15.48-20.39s9.24,16.08,8.42,17.31c-.5.75-2.07,2.28-4.31-2s-8.67-13.62-8.67-13.62Z"/><path class="cls-20" d="M30,605.17s-6.07,4.34-9.44,7.37-7.94,6.34-10.75,14.09,1.63,13.48,9.23,13.94,19.23-5.27,20.37-12.22,10-6.07,11.21-11-.39-10.93-.39-10.93Z"/><path class="cls-19" d="M31.06,599.48l-1,5.69s3.13,5.79,20.22,1.29l-.88-5.61Z"/><path class="cls-20" d="M50.27,606.46s-3.85.51-6.59.94S35.5,604.32,30,605.17l1.68,6.92S49.89,608.7,50.27,606.46Z"/><path class="cls-20" d="M139.15,605.17s6.07,4.34,9.44,7.37,7.94,6.34,10.75,14.09-1.63,13.48-9.23,13.94-19.23-5.27-20.37-12.22-10-6.07-11.21-11,.39-10.93.39-10.93Z"/><path class="cls-19" d="M138.13,599.48l1,5.69S136,611,118.92,606.46l.88-5.61Z"/><path class="cls-21" d="M145.42,466.75c0,12.51-5,131.53-5,131.53-1.25,4.17-18.2,4-22.37,1.87S114.66,481,113.89,468.37,103,362.92,99.32,363.34,75,451.2,72.06,460.8,52.31,600.08,52.31,600.08c-14.26,5-23.51,0-23.51,0s5.45-130.74,5.46-146.26c0-5.76,1.7-10.12,3.33-40.75,1.24-23.35,7.74-71.19,12.09-104.11.16-1.17.3-2.3.45-3.37.85-6.41,1.49-11.12,1.8-13.37l.21-1.5q1.76-.81,3.67-1.5c30.55-11,89.47.64,89.47.64s0,.29.1.83l.36,3c.34,2.9.85,7.22,1.43,12.24v.11l.05.46c2.06,17.85,3.07,27.66,4.69,46.71C152.27,357.43,145.42,454.24,145.42,466.75Z"/><path class="cls-22" d="M117.8,121.62s50,10.62,54.2,24.53,12.27,46.56,23.54,82.07c6.74,21.25,41,69.64,41,69.64s-19.59,14.44-19.59,12.5-46.14-63.52-46.7-71-14.54-45.9-14.54-45.9-6.62,73.82-6.62,85.22.75,34.49.75,34.49-18.54,7.1-54.54,5.22c0,0-57.3-2-47.52-19.43,7.39-13.21,2.86-102,1.75-102.6s-21.09,24.46-19.14,29.28S84,247.7,84,247.7s1.51,5.57-6.52,18.18c0,0-77.21-22.56-77.49-27.29s32.12-96.54,42.7-101.34c15.23-6.92,55.06-17.8,55.06-17.8Z"/><path class="cls-20" d="M118.92,606.46s3.85.51,6.59.94,8.18-3.07,13.63-2.22l-1.68,6.92S119.3,608.7,118.92,606.46Z"/><path class="cls-19" d="M117,104.22s-2.06,11.3,1.48,19c0,0,3.61,18-14.8,18.79s-18.83-15.69-18.83-15.69,4.4-5.91,1.46-22S117,104.22,117,104.22Z"/><path class="cls-19" d="M105.8,38.88s23.56,3.8,20,41.54S101.39,115.07,100,115s-20.87.69-22.39-45.39C77.61,69.64,76.95,35.56,105.8,38.88Z"/><path class="cls-19" d="M126.13,69.76s2.58-2.82,3.53,0S126.3,85,126,86c0,0-.47,1.11-1.09.5S126.13,69.76,126.13,69.76Z"/><path class="cls-19" d="M78.18,69.28s-2.53-2.87-3.53,0S77.83,85,78,85.51c0,0,.45,1.12,1.08.52S78.18,69.28,78.18,69.28Z"/><path class="cls-21" d="M126.12,75.55l-3.37,4.62s.1-10.12-.45-11.71.64-7.11.19-8.26-16.11,3.11-41.79.5c0,0,2.86,9.12,1.18,9.77S81,82.31,81,82.31l-2.77-3.2S75.12,60,75.43,56.77c.41-4.25-1-24.12,35.1-20.71a21.85,21.85,0,0,1,11.41,4.49c3.71,2.9,7.53,7.42,7.18,13.64C128.66,62.4,126.12,75.55,126.12,75.55Z"/><path class="cls-23" d="M89.27,110s9.72,11.35,25.15,0c0,0-4.33,8.61-13.39,8.81S89.27,110,89.27,110Z"/><rect class="cls-24" x="27.39" y="174.16" width="75.79" height="114.14" transform="matrix(0.96, 0.28, -0.28, 0.96, 67.06, -9.03)"/><path class="cls-25" d="M97.57,246.92s4.75-.13,6.21-.34.49,2.88-1.19,3.47S97.57,246.92,97.57,246.92Z"/><path class="cls-19" d="M100.35,269.61a9.73,9.73,0,0,1-3.09.28s-1.81-.55-3.13-.86a9.14,9.14,0,0,0-1-.2,17.8,17.8,0,0,1-5.6-.94c-2.35-.92-10.33-5-10.33-5l2.28-7.41,1.72-5.87s13.48-3.59,15.77-3a6.13,6.13,0,0,1,.64.21c1.89.7,3,2,4,2.49.35.18,3.68,2.18,3.86,3.33a3.8,3.8,0,0,1-1.06,3.54s.34,3.15-.83,4.93a5.65,5.65,0,0,1-1.68,4.7S101.92,268.8,100.35,269.61Z"/><path class="cls-26" d="M84,247.7a27.92,27.92,0,0,1-6.52,18.18S20.79,248.19,14,245.53s24.54-85.81,24.54-85.81l23,7.84L49.23,190.95s-6.12,13.1-18.86,34.66C30.37,225.61,38.21,233,84,247.7Z"/><ellipse class="cls-14" cx="62.7" cy="226.83" rx="9.55" ry="11.27"/><path class="cls-27" d="M123.94,134.73l-5.23-16.49s-8.42,3.92-32.82,1.2l-5.54,15.78S101.28,153.47,123.94,134.73Z"/><path class="cls-28" d="M92.48,76c1.19.37,1.92,2.35,1.62,4.43s-1.5,3.47-2.69,3.1-1.92-2.35-1.62-4.43S91.28,75.66,92.48,76Z"/><path class="cls-28" d="M114.31,76c1.19.37,1.92,2.35,1.62,4.43s-1.5,3.47-2.69,3.1-1.92-2.35-1.62-4.43S113.12,75.62,114.31,76Z"/><path class="cls-29" d="M101.47,81.4c-.18.58,4.56,6.07,4.56,6.07.53,2.06-6,3.86-6.81,1.8a5.84,5.84,0,0,0,5.61-1.87C103.89,86.33,100.89,82.9,101.47,81.4Z"/><path class="cls-30" d="M95.93,74.78c-2.91-2.44-8.08-2.85-10,1.11-.94,2-1.41.75-.95-.54,1.68-4.73,9.62-5.2,11.66-2.18C97.14,73.85,96.29,74.89,95.93,74.78Z"/><path class="cls-31" d="M109.73,94.19a8.64,8.64,0,0,1,.16,1.39,8.19,8.19,0,0,1-7.82,8.61,8.31,8.31,0,0,1-8.42-8.12,8.63,8.63,0,0,1,.06-1.39Z"/><path class="cls-32" d="M95.23,95.62l.07,1.45a1.06,1.06,0,0,0,1.11,1l11.33-.53a1.06,1.06,0,0,0,1-1.11l-.06-1.23Z"/><path class="cls-30" d="M108.15,74.8c2.65-2.72,7.75-3.65,10,.1,1.13,1.87,1.48.61.89-.63-2.15-4.54-10.1-4.2-11.83-1C106.86,74,107.81,74.94,108.15,74.8Z"/></g></g></svg>