<svg xmlns="http://www.w3.org/2000/svg" xmlns:xlink="http://www.w3.org/1999/xlink" viewBox="0 0 426.12 404.28"><defs><style>.cls-1{fill:none;stroke:#ccc;stroke-miterlimit:10;stroke-width:0.28px;}.cls-2{fill:url(#Безымянный_градиент_9);}.cls-3{fill:url(#Безымянный_градиент_9-2);}.cls-4,.cls-6{fill:#363438;}.cls-4,.cls-51{opacity:0.1;}.cls-10,.cls-11,.cls-12,.cls-13,.cls-14,.cls-15,.cls-16,.cls-17,.cls-18,.cls-20,.cls-21,.cls-22,.cls-23,.cls-24,.cls-25,.cls-26,.cls-27,.cls-28,.cls-29,.cls-30,.cls-31,.cls-32,.cls-33,.cls-34,.cls-35,.cls-36,.cls-37,.cls-38,.cls-39,.cls-40,.cls-41,.cls-45,.cls-46,.cls-5,.cls-6,.cls-7,.cls-8,.cls-9{fill-rule:evenodd;}.cls-5{fill:url(#Безымянный_градиент_9-3);}.cls-7{fill:url(#Безымянный_градиент_9-4);}.cls-8{fill:#e2cab6;}.cls-51,.cls-9{fill:#212023;}.cls-10{fill:#651906;}.cls-11{fill:url(#Безымянный_градиент_9-5);}.cls-12{fill:#fbb98c;}.cls-13{fill:#faad7b;}.cls-14{fill:url(#Новый_образец_градиентной_залив);}.cls-15{fill:#f9a873;}.cls-16{fill:#f39157;}.cls-17{fill:#faad79;}.cls-18{fill:url(#Новый_образец_градиентной_залив-2);}.cls-19{fill:url(#Безымянный_градиент_13);}.cls-20{fill:url(#Безымянный_градиент_9-6);}.cls-21{fill:#94582b;}.cls-22{fill:#763915;}.cls-23{fill:url(#Безымянный_градиент_9-7);}.cls-24{fill:#7ea504;}.cls-25{fill:#7e290f;}.cls-26{fill:#5a1404;}.cls-27{fill:#d8640e;}.cls-28{fill:url(#Безымянный_градиент_9-8);}.cls-29{fill:#b75913;}.cls-30{fill:#392515;}.cls-31{fill:#f59a60;}.cls-32{fill:url(#Безымянный_градиент_13-2);}.cls-33{fill:url(#Безымянный_градиент_13-3);}.cls-34{fill:#f99d63;}.cls-35,.cls-43{fill:#87ba0b;}.cls-36{fill:url(#Безымянный_градиент_9-9);}.cls-37{fill:url(#Безымянный_градиент_9-10);}.cls-38{fill:#464447;}.cls-39{fill:#0f0f0f;}.cls-40{fill:url(#Безымянный_градиент_13-4);}.cls-41{fill:url(#Безымянный_градиент_13-5);}.cls-42{fill:#ededed;}.cls-44{fill:url(#Новый_образец_градиентной_залив-3);}.cls-45{fill:#f79961;}.cls-46{fill:#fff;}.cls-47{fill:url(#Безымянный_градиент_13-6);}.cls-48{fill:url(#Безымянный_градиент_13-7);}.cls-49{fill:url(#Новый_образец_градиентной_залив-4);}.cls-50{fill:url(#Новый_образец_градиентной_залив-5);}</style><linearGradient id="Безымянный_градиент_9" x1="363.21" y1="89.84" x2="369.16" y2="89.84" gradientTransform="translate(534.04 -260.69) rotate(102.83)" gradientUnits="userSpaceOnUse"><stop offset="0" stop-color="#fe7302"/><stop offset="1" stop-color="#ffd255"/></linearGradient><linearGradient id="Безымянный_градиент_9-2" x1="372.53" y1="53.07" x2="328.08" y2="5.74" gradientTransform="translate(0.99 91.26) rotate(-14.43)" xlink:href="#Безымянный_градиент_9"/><linearGradient id="Безымянный_градиент_9-3" x1="40.36" y1="312.37" x2="71.74" y2="312.37" gradientTransform="matrix(1, 0, 0, 1, 0, 0)" xlink:href="#Безымянный_градиент_9"/><linearGradient id="Безымянный_градиент_9-4" x1="30.57" y1="256.19" x2="83.08" y2="256.19" gradientTransform="matrix(1, 0, 0, 1, 0, 0)" xlink:href="#Безымянный_градиент_9"/><linearGradient id="Безымянный_градиент_9-5" x1="2.53" y1="306.98" x2="33.92" y2="306.98" gradientTransform="matrix(1, 0, 0, 1, 0, 0)" xlink:href="#Безымянный_градиент_9"/><linearGradient id="Новый_образец_градиентной_залив" x1="47.02" y1="239.07" x2="135.56" y2="239.07" gradientUnits="userSpaceOnUse"><stop offset="0" stop-color="#87ba0b"/><stop offset="1" stop-color="#dcf0ad"/></linearGradient><linearGradient id="Новый_образец_градиентной_залив-2" x1="70.32" y1="220.74" x2="121.29" y2="220.74" xlink:href="#Новый_образец_градиентной_залив"/><linearGradient id="Безымянный_градиент_13" x1="162.59" y1="149.17" x2="35.85" y2="94.3" gradientTransform="translate(256.72 -21.32) rotate(80.95)" gradientUnits="userSpaceOnUse"><stop offset="0" stop-color="#6f368e"/><stop offset="1" stop-color="#ad8ac2"/></linearGradient><linearGradient id="Безымянный_градиент_9-6" x1="19.97" y1="271.12" x2="65.12" y2="271.12" gradientTransform="matrix(1, 0, 0, 1, 0, 0)" xlink:href="#Безымянный_градиент_9"/><linearGradient id="Безымянный_градиент_9-7" x1="71.31" y1="257.7" x2="81.49" y2="257.7" gradientTransform="matrix(1, 0, 0, 1, 0, 0)" xlink:href="#Безымянный_градиент_9"/><linearGradient id="Безымянный_градиент_9-8" x1="250.82" y1="208.26" x2="301.54" y2="208.26" gradientTransform="matrix(1, 0, 0, 1, 0, 0)" xlink:href="#Безымянный_градиент_9"/><linearGradient id="Безымянный_градиент_13-2" x1="235" y1="194.44" x2="307.6" y2="279.56" gradientTransform="matrix(1, 0, 0, 1, 0, 0)" xlink:href="#Безымянный_градиент_13"/><linearGradient id="Безымянный_градиент_13-3" x1="207.91" y1="218.23" x2="250.63" y2="218.23" gradientTransform="matrix(1, 0, 0, 1, 0, 0)" xlink:href="#Безымянный_градиент_13"/><linearGradient id="Безымянный_градиент_9-9" x1="274.29" y1="216.25" x2="286.89" y2="216.25" gradientTransform="matrix(1, 0, 0, 1, 0, 0)" xlink:href="#Безымянный_градиент_9"/><linearGradient id="Безымянный_градиент_9-10" x1="227.52" y1="210.54" x2="250.88" y2="210.54" gradientTransform="matrix(1, 0, 0, 1, 0, 0)" xlink:href="#Безымянный_градиент_9"/><linearGradient id="Безымянный_градиент_13-4" x1="285.62" y1="203.2" x2="318.97" y2="203.2" gradientTransform="matrix(1, 0, 0, 1, 0, 0)" xlink:href="#Безымянный_градиент_13"/><linearGradient id="Безымянный_градиент_13-5" x1="266.18" y1="269.71" x2="279.55" y2="292.96" gradientTransform="matrix(1, 0, 0, 1, 0, 0)" xlink:href="#Безымянный_градиент_13"/><linearGradient id="Новый_образец_градиентной_залив-3" x1="158.99" y1="144.94" x2="174.06" y2="144.94" xlink:href="#Новый_образец_градиентной_залив"/><linearGradient id="Безымянный_градиент_13-6" x1="403.21" y1="88.86" x2="407.84" y2="88.86" gradientTransform="translate(437.57 -294.21) rotate(89.03)" xlink:href="#Безымянный_градиент_13"/><linearGradient id="Безымянный_градиент_13-7" x1="351.26" y1="91.19" x2="307.98" y2="65.12" gradientTransform="matrix(1, 0, 0, 1, 0, 0)" xlink:href="#Безымянный_градиент_13"/><linearGradient id="Новый_образец_градиентной_залив-4" x1="402.35" y1="47.57" x2="406.98" y2="47.57" gradientTransform="translate(727.54 -132.42) rotate(139.61)" xlink:href="#Новый_образец_градиентной_залив"/><linearGradient id="Новый_образец_градиентной_залив-5" x1="349.74" y1="98.93" x2="400.27" y2="98.93" gradientTransform="translate(89.87 -169.69) rotate(22.35)" xlink:href="#Новый_образец_градиентной_залив"/></defs><title>kids</title><g id="Слой_2" data-name="Слой 2"><g id="OBJECTS"><path class="cls-1" d="M383,168.22s-11.75,3.5-19.25-10.13c-11.28-20.49-14.74-26.65,4.08-46.4,15.26-16-13.4-50.39-13.4-50.39"/><path class="cls-1" d="M377.5,177.84s-3.44-4.43-3.77-5.54c-2.58-8.75-24.49-31.18-22.45-33.92,10.28-13.8,1.62-31.25,1.62-31.25"/><path class="cls-1" d="M371,169.22s-7-13.53-9.74-15.88c-13.73-11.95-8.44-33,12.5-36.51,17-2.87,15.13-37.65,15.13-37.65"/><polygon class="cls-2" points="367.66 76.99 363.3 72.95 361.98 78.75 367.66 76.99"/><path class="cls-3" d="M383.52,24.39c4.47,17.36-3,46.68-20.37,51.15s-38.05-17.61-42.52-35a32.47,32.47,0,1,1,62.88-16.18Z"/><path class="cls-4" d="M383.19,23.24C379,45,369.18,63.78,353.85,67.73a28.17,28.17,0,0,1-16.24-1c7.79,6.85,17.07,11,25.55,8.83,17.36-4.47,24.83-33.79,20.36-51.15C383.42,24,383.31,23.62,383.19,23.24Z"/><path class="cls-5" d="M66.82,311.4c-1.71,1.73-16.41,15.88-23,14s-3.24-9.05,4.23-16.79,15.41-9.77,17.3-9.43C75.52,301,71.63,306.55,66.82,311.4Z"/><path class="cls-6" d="M41.39,266.27C43,264.51,62.53,252,62.53,252a32.91,32.91,0,0,1-3.43-1.3c8,1.55,28.37,8.1,27.6,18.21-.12,1.53-17.82,33-23.09,33.72s-27.41-9.84-28.76-11.76S41.39,266.27,41.39,266.27Z"/><path class="cls-7" d="M67.08,258.21c-4.94-17.53-35.83,5.65-36.33,5.23-.71-.59.88-2,2-2.88,11.89-9.39,22.09-15.83,36.68-9.7,8.82,3.7,13.87,7.7,13.64,9.52s-.38,3.6-1,3.54S67.08,258.21,67.08,258.21Z"/><path class="cls-8" d="M42.84,320.31c1.8-6.17,11.52-14.27,15.5-16.82a71.19,71.19,0,0,1,7.86-4.17l-.81-.12c-1.89-.34-9.83,1.69-17.3,9.43-7,7.21-10.3,13.94-5.44,16.33A7.45,7.45,0,0,1,42.84,320.31Z"/><path class="cls-9" d="M59.8,306.67a.86.86,0,0,1,1-1.38,27.31,27.31,0,0,1,2.17,3,14.26,14.26,0,0,1,1.25,2.39,12.59,12.59,0,0,1,.81,3.31.86.86,0,1,1-1.71.08,10.72,10.72,0,0,0-.7-2.8,12.66,12.66,0,0,0-1.1-2.08C60.71,307.87,59.85,306.71,59.8,306.67Z"/><path class="cls-9" d="M62.32,316.05a.86.86,0,0,1-1.66.44,16.84,16.84,0,0,0-1.7-4.15,24.37,24.37,0,0,0-2.67-3.68.86.86,0,1,1,1.3-1.12,26,26,0,0,1,2.86,3.94A18.53,18.53,0,0,1,62.32,316.05Z"/><path class="cls-9" d="M59.17,318.15a.86.86,0,1,1-1.71.15,13.59,13.59,0,0,0-1.58-3.56,12.68,12.68,0,0,0-2.17-3.08.86.86,0,0,1,1-1.4,13.52,13.52,0,0,1,2.68,3.64A14.6,14.6,0,0,1,59.17,318.15Z"/><path class="cls-10" d="M97.33,188.62c15.69-16.92,23.08-49.31,2.59-67.14C86.75,110,78.14,108.91,69.48,116.66c-48,5.86-27.27,48.42-42.11,60.7-4,3.34,14.57,14,20.56,16.4s14.2,1.76,24.93-1.88S90.26,186.6,97.33,188.62Z"/><path class="cls-9" d="M105.9,337.18c-.33-1.82-1-5.47-10.83-17.31s-27.24-20.23-27.24-20.23l-4.07,4.54s25.48,46.64,30,48.52S105.9,337.18,105.9,337.18Z"/><path class="cls-11" d="M29,306c-1.71,1.73-16.41,15.88-23,14S2.8,311,10.27,303.23s15.41-9.77,17.3-9.43C37.69,295.59,33.8,301.15,29,306Z"/><path class="cls-8" d="M5,314.91c1.8-6.17,11.52-14.27,15.5-16.82a71.21,71.21,0,0,1,7.86-4.17l-.81-.12c-1.89-.34-9.83,1.69-17.3,9.43-7,7.21-10.3,13.94-5.44,16.33A7.45,7.45,0,0,1,5,314.91Z"/><path class="cls-6" d="M22,301.28a.86.86,0,0,1,1-1.38,27.21,27.21,0,0,1,2.17,3,14.24,14.24,0,0,1,1.25,2.39,12.6,12.6,0,0,1,.81,3.31.86.86,0,1,1-1.71.08,10.72,10.72,0,0,0-.7-2.8,12.71,12.71,0,0,0-1.1-2.08C22.88,302.48,22,301.31,22,301.28Z"/><path class="cls-6" d="M24.5,310.66a.86.86,0,0,1-1.66.44,16.83,16.83,0,0,0-1.7-4.15,24.37,24.37,0,0,0-2.67-3.68.86.86,0,1,1,1.3-1.12,26,26,0,0,1,2.86,3.94A18.53,18.53,0,0,1,24.5,310.66Z"/><path class="cls-6" d="M21.34,312.76a.86.86,0,1,1-1.71.15,13.59,13.59,0,0,0-1.58-3.56,12.69,12.69,0,0,0-2.17-3.08.86.86,0,0,1,1-1.4,13.52,13.52,0,0,1,2.68,3.64A14.59,14.59,0,0,1,21.34,312.76Z"/><path class="cls-6" d="M71.11,336.42c-.33-1.82-2.9-7.85-12.76-19.69S32.21,296,32.21,296c-3.57-.63-6.11,6.42-3.21,10,7.66,9.54,24.26,42,28,43.55C61.51,351.43,71.11,336.42,71.11,336.42Z"/><path class="cls-6" d="M118,267.64a90.37,90.37,0,0,1,.67,22.32c-1.23,11.51-7.17,48.24-18,60.07s-9-6.17-9.51-24.43S97,277.14,97,277.14Z"/><path class="cls-6" d="M102.12,267.24c-.26,5.14-11.83,50.65-25.46,68.65s-22.63,20.83-22.11,0,16.73-65.14,16.73-65.14Z"/><path class="cls-12" d="M54,208.85l10.55,14.52S47.78,246.3,42.84,244.66,18.5,206.92,18.5,206.92s.08.37-2.69-1.37-6.5-6.31-6.5-6.31-10.37-7.71-9.22-9.35,9.55,6.19,10.52,6.2-9.39-10.72-7.84-12.23,10.75,9.93,11.25,9.6-10.53-13.75-8.47-15,11.7,12.94,12,12.83-4.59-11.9-3.17-12.74,6,9.53,7.21,12c.33.69.81,1.76,1.29,3,.28-3.28-1.19-6.11.22-8.42.67-1.09,2.86,6.8,2.94,7.51.06.52-.54,5.63-1.06,8.59a5.18,5.18,0,0,1,0,.88L43.78,229,54,208.85ZM18.5,206.92h0Z"/><path class="cls-12" d="M121.38,193.91l20.19,10.21-.74-33.26,8.08.49s5.67,40.58,2.66,44.83-30.12-4.32-30.12-4.32Z"/><path class="cls-13" d="M145.71,171.16l3.21.2s5.67,40.59,2.66,44.83-30.12-4.32-30.12-4.32v-3.44c3.64,1.59,7.2,2.89,8.31,2.47,2.47-.94,5.7-7.7,5.7-7.7s-1.58,7.59,1.48,9.58,10.58,1.88,11.4.24-4.13-40.2-3-41.2A2.07,2.07,0,0,0,145.71,171.16Z"/><path class="cls-14" d="M47,221l11.13,12.23,12.66-13.66c.17-.18,17.33,13.41,11.49,36.42-1.11,4.39-7.68,8.09-10.54,13.47-6.06,11.43,39.85,19.74,46.91,20.55,1.42-2.58,2.93-16.38-.83-23.9-9.91-19.8,2.86-41.89,1.8-51.39,0,0,13.55,2.91,13.31,1.25s3.73-15,2.3-15c-1,0-20.74-12.26-24.81-12.5-4.39-.26-9.34-.49-13.11.19-8.92,1.62-15.22,4.05-23.18,4.47-2.76.71-8,2.16-11.26,5C56,204,50.82,214.2,47,221Z"/><path class="cls-15" d="M97.33,188.62c-.79.13-2.33.15-3.09.29-4.76.89-8.3,2-14.28,2.94-1.94.29-3.83,1.1-5.81,1.24a5.64,5.64,0,0,0-.18,1.4c0,4.76,6,8.61,13.49,8.61s13.49-3.86,13.49-8.61C100.94,192.22,99.57,190.16,97.33,188.62Z"/><path class="cls-15" d="M77.18,180.17c.59,1.9,3.33,16,3.33,16s6.89,3.09,10.93.59,4.4-4.16,4.4-4.16l-5.94-13.9Z"/><path class="cls-12" d="M71.74,120.7c16.09-3.47,28.59,9.63,32.55,28s-2.11,35.11-18.2,38.58-29.24-9.11-33.2-27.51S55.64,124.17,71.74,120.7Z"/><path class="cls-12" d="M51.31,156.45c3,0,6,3.21,6.64,7.16s-1.2,7.16-4.19,7.16-6-3.21-6.64-7.16S48.33,156.45,51.31,156.45Z"/><path class="cls-12" d="M105.72,142.27c3,0,5.6,3.2,5.84,7.16s-2,7.16-5,7.16-5.6-3.21-5.84-7.16S102.73,142.27,105.72,142.27Z"/><path class="cls-16" d="M51.88,158.92c-4,0-3.87,7.21.55,9.12,2.36,1,2.71-1.06,2.28-1.73s-1.53-.35-2.28-1.81.45-1.06.63-2.67A3.94,3.94,0,0,0,51.88,158.92Z"/><path class="cls-16" d="M104.44,144.67c3.37-2.13,7.12,4,4.41,8-1.45,2.13-2.86.55-2.85-.24s1.11-1.12,1-2.75-.95-.65-2-1.92A3.94,3.94,0,0,1,104.44,144.67Z"/><path class="cls-17" d="M78.22,184.75c-9.26-.66-17.09-6.57-22.1-15.51l-.12.12C60.71,179.85,68.93,187,78.85,187.8a24.56,24.56,0,0,0,7.24-.49,24.18,24.18,0,0,0,6.46-2.36c9.34-5.06,13.62-16,12.82-28.53l-.22-.07c0,11.54-4.62,21.3-13.78,25.84a25.28,25.28,0,0,1-6,2.06A25.68,25.68,0,0,1,78.22,184.75Z"/><path class="cls-18" d="M85.1,205.89a14.63,14.63,0,0,1,10.57,4.52,14.64,14.64,0,0,1,10.84-4.8,15,15,0,0,1,0,30,14.63,14.63,0,0,1-10.57-4.52,14.64,14.64,0,0,1-10.84,4.8,15,15,0,0,1,0-30Z"/><path class="cls-10" d="M76.38,119.22c-.89,14.32-12.49,32.47-28,35.55-12.2,2.42,6.06-25.9,8.94-28.61C64.62,119.31,76.38,119.22,76.38,119.22Z"/><path class="cls-10" d="M69.76,120.86C72.57,124,73.39,129,86.09,132s19,8.35,19,8.35-.57-10.6-11.76-17.64S69.76,120.86,69.76,120.86Z"/><path class="cls-10" d="M96.09,132c.7.7,5.12,5.91,6.66,11.13s2.39,13.17,2.48,12.62,1.29-10.24-.45-15a63.39,63.39,0,0,0-2.83-6.86Z"/><path class="cls-10" d="M54.47,142.74c-.22,1-1.23,7.72.21,13s4.92,12.45,4.55,12-6.5-8-7.54-13a63.4,63.4,0,0,1-1.21-7.32Z"/><path class="cls-12" d="M148.4,172.2c-1,.19-5.35,1.46-7.8.28s-5.22-10-5.92-13-4-15.14-2.18-15.29,5.85,13.48,6.24,13.36-1.2-18.88,1.5-19.07,2.52,18.76,3.18,18.74.66-16.06,3.08-15.69.93,16.49,1.77,15.87,2.66-12.93,4.85-12.19-1.47,14.18-1.47,14.18,0,6.38-1.25,9.74S148.4,172.2,148.4,172.2Z"/><path class="cls-12" d="M149.17,159s1,1.75-.53,6.16a29.83,29.83,0,0,1-2.29,4.95,27.43,27.43,0,0,1-1.81,2.79,33.31,33.31,0,0,0,3.86-.71s.34.14.94-.76a11.28,11.28,0,0,0,1.06-2.29c1.22-3.36,1.25-9.74,1.25-9.74s3.65-13.44,1.47-14.18a.59.59,0,0,0-.23,0,28,28,0,0,1-.79,7.74A22.65,22.65,0,0,1,149.17,159Z"/><rect class="cls-19" x="117.92" y="106.85" width="45.86" height="65.81" transform="translate(-19.31 256.88) rotate(-80.95)"/><path class="cls-12" d="M142.23,172.92c-.43-.41-1.36,0-2.37-1a87,87,0,0,1-6.65-8.39c-.45-.62-4.1-9.11-2.74-8.56,3.59,1.45,3.81,6.51,8.5,9.24C144.23,167.26,145.91,172,142.23,172.92Z"/><path class="cls-13" d="M146.35,170.12a29.85,29.85,0,0,0,2.29-4.95c.11-.32.21-.62.3-.92l2.38.38a21.17,21.17,0,0,1-.93,4.51,8.5,8.5,0,0,1-1.37,2.69c-.29.32-3.84,1.35-3.87,1C145.06,172,146.35,170.12,146.35,170.12Z"/><path class="cls-20" d="M62.53,252.08c-1.63-.22-3-4.2-16.47,2.55S18.94,275.68,20,278.2c0,0,8.39,10.86,16.25,13.28,3.86,1.19,25.61-23.83,28.08-29.9S62.53,252.08,62.53,252.08Z"/><path class="cls-21" d="M62.53,252.08c-1.63-.22-3-4.2-16.47,2.55S18.94,275.68,20,278.2a62.82,62.82,0,0,0,6,6.53,33.17,33.17,0,0,0-1-5.88c-1.41-5.06,15.31-20.91,25-22.34,8.76-1.29,12.3,4,13.71,6.29a11.23,11.23,0,0,0,.61-1.23C66.82,255.5,62.53,252.08,62.53,252.08Z"/><path class="cls-22" d="M111.81,188.74s-3.47,30.45-14.75,49.5c-7.51,12.68-32.35,14.7-42.35,27.46,0,0-7.86-4.16-6.63-5.61,17.06-20.2,49.1-8.94,55-61.83a32.71,32.71,0,0,0-.08-10.09A8.9,8.9,0,0,1,111.81,188.74Z"/><path class="cls-9" d="M71.31,259.86c-2.63,9.12-12.81,22.93-17.17,32a60,60,0,0,0-3,7.32c2.25.92,4.46,1.73,6.42,2.35a26.15,26.15,0,0,1,4.32-1.78c4.5-15.54,9.42-29,9.42-29a4.71,4.71,0,0,1,.48-1.35c1.42-2.69,3.77-5,5.91-7.09Z"/><path class="cls-23" d="M71.31,259.86l6.36,2.45a37,37,0,0,0,2.89-3.14,12.66,12.66,0,0,0,.93-1.34,33.25,33.25,0,0,0-7.28-4.75l-2.42,1.08q0,.2.05.4a12,12,0,0,1-.18,3.89Q71.52,259.13,71.31,259.86Z"/><path class="cls-24" d="M74,276.15a29.28,29.28,0,0,0,6.71,4,102,102,0,0,0,14.77,5.05l2.3.61a193,193,0,0,0,20.92,4.2,12.39,12.39,0,0,0,.93-3.35c.91-5.25,1.14-14.76-1.76-20.55-5.85-11.7-3.8-24.19-1.35-34.42-2.63,2.45-8.06,3.94-10,3.94-1.22,0,.53,16.57.54,31,0,8.1,8.53,19.44,5.31,20.09C103.49,288.5,78.79,276.49,74,276.15Z"/><path class="cls-24" d="M117.4,226.35c-2.23,5.88-10.89,9.24-10.89,9.24a14.61,14.61,0,0,0,10-3.94,15.1,15.1,0,0,0-2.22-23.81c1.24,2.12,2.69,4.58,3.48,6C119.4,216.77,119.64,220.47,117.4,226.35Z"/><path class="cls-24" d="M120.13,214.77c2.42.5,13,2.62,12.83,1.15a3.63,3.63,0,0,1,.05-.86c.3-2.14,1.61-7.15,2.23-10.59.1-.78.21-1.29.21-1.29s-3.23,6.76-5.7,7.7c-1.11.42-4.67-.87-8.31-2.47-4.46-2-9-4.36-9.32-4.58s.82,1.7,2.16,4A15,15,0,0,1,120.13,214.77Z"/><path class="cls-13" d="M18.5,206.92S37.9,243,42.84,244.66c2.8.93,9.41-6,14.62-12.23l-7-7.71a62.69,62.69,0,0,1,2.12,6.35c0,.71-5.64,8.41-8.94,8.64S22.1,208.54,21.81,208s1.06-4,1.23-4.29-2.53,1.47-4.06,1.85-5.5-4-6.41-5.14-.68-3.62-.68-3.62l-1.76,1.38L.09,189.89c-1.16,1.65,9.22,9.35,9.22,9.35s3.69,4.54,6.5,6.31S18.5,206.93,18.5,206.92Z"/><path class="cls-24" d="M75.65,228a18,18,0,0,1-2.5-6.48A66.29,66.29,0,0,1,72,214c-.34-3.27-.42-5.76-.42-5.76s-4.62,7.27-8.61,12.85c-2.13,3-4.07,5.48-5,6.14-2.76,1.88-7.82-3.47-7.82-3.47l.35.94,7,7.71.69.76L70.35,220q0,.43,0,.86a15,15,0,0,0,11.39,14.59,34.68,34.68,0,0,1,1.09,4,41,41,0,0,0,4.87-3.87c6-5.56,10.94-13.73,13.78-27.19-1.18,3-2.65,6.52-4.22,9.56a97.28,97.28,0,0,1-10.82,15.93c-.34.26-3.15-.27-6.08-1.93A15.3,15.3,0,0,1,75.65,228Z"/><path class="cls-24" d="M105.13,219.45a103.6,103.6,0,0,1-5.66,14.33c-.76,1.54-1.56,3-2.41,4.46-2.75,4.64-7.82,7.85-13.63,10.68a39.05,39.05,0,0,1-1.13,7,7.19,7.19,0,0,1-.81,1.89,12.66,12.66,0,0,1-.93,1.34,37,37,0,0,1-2.89,3.14c-2.13,2.14-4.48,4.41-5.91,7.09a4.71,4.71,0,0,0-.48,1.35,4.49,4.49,0,0,0,.85,3.42l3.56-3.92c1.91-2.11,4-4.4,5.83-6.5l1.29-1.47q.32-.37.61-.73c4.76-6,2.23-10.33,2.23-10.33s7.76-4.35,11.35-9.58a39.62,39.62,0,0,0,3.33-7.42C102,229.63,103.78,224,105.13,219.45Z"/><path class="cls-25" d="M70.81,124.09c-2.7,11.41-8.42,21.33-17.64,28.69C63.84,147.83,70.87,135.73,70.81,124.09Z"/><path class="cls-26" d="M64.81,122.33c-1.12,11.67-9,21.16-18.69,27.28C56.66,146,67,134.13,64.81,122.33Z"/><path class="cls-26" d="M58.7,126.09c-2.83,2.94-18.54,18.25-16.46,22.22a.72.72,0,0,0,.18-.37V148C48.15,139.41,53.14,134.9,58.7,126.09Z"/><path class="cls-26" d="M44.36,153c-1.63,5.17-6.65,19.71-10.11,24.46C40.69,175,44,158.23,44.36,153Z"/><path class="cls-25" d="M47.88,172.3c-2.64,4.08-5.34,7.62-8.35,11.52C42.77,182,50,174.46,47.88,172.3Z"/><path class="cls-26" d="M56.58,175.94c-2.11,3.83-5.26,9.21-9.05,11.4C50,189.08,57,181.53,56.58,175.94Z"/><path class="cls-26" d="M64,186.76v0c-1.33,3.39-5.79,6.5-9.86,6.14a33.58,33.58,0,0,0,4.83-3.11c5.74-4.5,5.64-3.33,5-3Zm-.15-.25h0a.12.12,0,0,0,.09.12Z"/><path class="cls-25" d="M73.16,189.46c-4.24,1.68-7.85,2.42-12.23,3.88C65.77,193.83,70.2,193.82,73.16,189.46Z"/><path class="cls-25" d="M62.34,182.41c-4.56,2.16-6.54,4-10.58,6.35C56.44,189.37,59.66,185.72,62.34,182.41Z"/><path class="cls-25" d="M73.16,118.68C76.25,128.89,87,130,95.68,131,85.33,127.28,80.37,127.76,73.16,118.68Z"/><path class="cls-26" d="M80.45,118.09c6.37,4,21.76,11.63,25.25,18.85l0,.08c.07,0,.17.06.21,0C109,130.78,82,118.74,80.45,118.09Z"/><path class="cls-25" d="M82.8,114.45c10,6.62,4.91,3.47,15.24,9.44l0,0a1.49,1.49,0,0,0,.71.34C97.15,119.06,86.81,116,82.8,114.45Z"/><path class="cls-26" d="M74.81,117.62c7.87,6.42,3.62,4,12.64,7.47C79.76,119.41,83.94,121.94,74.81,117.62Z"/><path class="cls-27" d="M297.1,207.57c.55,1,1.66,7.52,1.35,9.74s-4,14.89-4,14.89a9.21,9.21,0,0,1-2.08,1c-1.33.5-11.5-11.64-10.79-15.6S297.1,207.57,297.1,207.57Z"/><path class="cls-28" d="M297,214.75c1.24,1.92-1.47,13.86-2.56,17.44-.17.57,16.15-29.06-.16-43.14-2.86-2.47-10.92-3.67-17.27-4.22-5.95-.51-25.53-.67-26.2-.36C250.7,184.53,288.17,201.11,297,214.75Z"/><path class="cls-29" d="M281.78,194.81c5.86,3.17,9.34,7.6,11.88,16.31s-2.69,5.23.16,20.12.79,30.41-5.86,37.06-42.29,5.7-51.16-3.8,5.74-65.43,14.91-70.57S281.78,194.81,281.78,194.81Z"/><path class="cls-30" d="M274.73,191.17c5.86,3.17,9.35,7.6,11.88,16.31s-2.69,5.23.16,20.12,2.38,30.89-4.28,37.54-38.35,6.24-47.22-3.26.22-66.45,9.38-71.59S274.73,191.17,274.73,191.17Z"/><path class="cls-15" d="M296.18,190.16c11.47-.87,7,.75,23.79-4.3-.67.51,17.71-11,30.52-35.37l6.46,5.62c-11.49,21.43-23,34.81-38.69,43.82-4.89,2.81-9.64,2.89-14.67,4.75Z"/><path class="cls-9" d="M228.56,364.75c.87,1,4.91,4.75,4.91,4.75l4.36,5.23s-4.59,8.87-7.76,13.15-14.49,8.32-15.92,4,7.29-10,8.55-14.1a24.44,24.44,0,0,0,1-7.84Z"/><path class="cls-9" d="M311.48,370.61s6.49,8.08,6.81,10.3,3.41,20.75,9.27,23,7.37-4.91,6.1-14.73-6-15.68-7.6-16.47-12.83-7.29-12.83-7.29Z"/><path class="cls-6" d="M270.61,270.8c3.12,7.9,17,60.05,17,60.05l34.06,38.53s-2.39,11.71-6.21,8.36c-2-1.78-37.14-29.33-45.09-36.52-4.64-4.2-19.79-38-20.79-38.12-2.15-.24-35.46,21-35.46,21S232.17,365.88,232.4,368s-4.62,5.11-8.68,3.91-32.78-45.14-31.34-49,36.84-52.16,36.84-52.16Z"/><path class="cls-15" d="M231.65,207.08c-6,2.77-6.08,4.15-18.54,5.75.61-.47-19.83,15.12-39.05,24.1l-2.87-4.85c12.34-10,26.89-23.1,36.73-29.22,7.05-4.39,10.9-4.33,18-7Z"/><path class="cls-15" d="M176.27,233.06l-2.2,3.86s-4.61,15.7-5.33,14.76,0-9.71,0-9.71-9.13,4.93-10.87,6.59-5.94,5.58-5.58,4.27,5.51-8,5.51-8-3.77,3.22-4.2,3.73-2.86,3-3,1.41c-.14-2.06,10.74-13.2,13.16-14.15,2-.8,7.42-3.73,7.42-3.73Z"/><path class="cls-15" d="M168.73,240.92c-1.81,1.74-7.06,6-7.14,6.23s-3.37,8.37-3.73,7.14,1.27-7.75,1.41-8,6-5.61,6.27-5.65S168.73,240.92,168.73,240.92Z"/><path class="cls-15" d="M164.09,237.45a3.26,3.26,0,0,1-2.19.45l-10.28,8.62s-.44.51,1,.44,10.77-7.64,10.77-7.64Z"/><path class="cls-31" d="M213.12,212.83c.61-.47-19.83,15.12-39.05,24.1l1.79-3.14,33.37-23.08-1-8C208.4,204,211.09,208.89,213.12,212.83Z"/><path class="cls-15" d="M175.85,233.79l-1.79,3.14s-4.12,14-5.18,14.77h-.15l3.69-15.76.76-.48Z"/><path class="cls-32" d="M315.8,187.11,319,210,285,216s-4,55.35-4.07,69.41c0,8.75-47.86,2.67-61.19-6.87l14.42-65.46s-18.69,7.75-18.45,6.07-9.07-17.08-7.63-17.08c1,0,28.56-17.23,32.66-17.46,4.42-.26,9.41-.5,13.2.19,9,1.63,15.63,5.62,23.34,4.5C282.76,187.87,299.15,188.56,315.8,187.11Z"/><path class="cls-33" d="M225.56,252l8.57-38.93s-18.69,7.75-18.45,6.07-7.49-14.46-7.77-16.74l9.48,9.25,14.89-9.9,7.23-13.86,9.75-3.54,1.37.06-11.77,37.62s-7.19,19.46-7.2,20.41C231.66,242.94,228.72,247.43,225.56,252Z"/><path class="cls-15" d="M253.92,184.84c.8.13,2.35.15,3.11.29,4.8.89,8.36,2.05,14.38,3,1.66.25,4,1.11,5.85,1.25a5.65,5.65,0,0,1,.18,1.41c0,4.79-6.08,8.67-13.58,8.67s-13.58-3.88-13.58-8.67C250.28,188.46,251.66,186.39,253.92,184.84Z"/><path class="cls-15" d="M274.2,176.33c-.6,1.91-3.35,16.15-3.35,16.15s-6.94,3.11-11,.6-4.43-4.19-4.43-4.19l6-14Z"/><path class="cls-9" d="M297.27,161c2.12-3.23,3.49-4.86,8.29-16.34S302,126.78,302,126.78A23.11,23.11,0,0,0,298.75,114c-3.79-6-5.46-7.58-5.13-6.36s-.11,2.79-.33,1.9-7.25-7.36-7.25-7.36-.73,3.23-1.12,2.84-1.23-2.06-11.37-4.91S255,96.84,255.71,97.34s3.79,3.35,3.12,3.12-8.81,0-12.43-.61-5.3-1.39-4.52-1,3.68,7.75,5.52,9.7a13.36,13.36,0,0,0,1.9,1.9s-.78-.72-6.75,1.84-7.92,5.19-7.58,5,10.87,1.06,10.87,1.06-3.29,12.15-2.73,15.72,2.9,15,3.62,15.14Z"/><path class="cls-12" d="M279.69,116.46c-16.2-3.49-28.79,9.7-32.77,28.22S249,180,265.24,183.52s29.44-9.18,33.42-27.69S295.89,119.95,279.69,116.46Z"/><path class="cls-34" d="M299.72,143.25c-.5-9.13-3.91-17.11-10-22.08-6.17.4-25.32,3.88-25.32,3.88s-5.62,4.28-6.1,4.28.71.71,5.39,1.27,18.06-1.11,18.53-1.27-5.78,6.42-5.78,6.42,2,.55,8.79-1.27a23,23,0,0,0,8.59-4.86c1,1.91,2.23,4.35,3.37,6.52A34.28,34.28,0,0,1,299.72,143.25Z"/><path class="cls-6" d="M298.6,122.23c-3,2.75-6.91,6.47-16.84,8.14s-11.6.89-11.6.89,5.35-4.57,3.9-4.13-8.81,1-14.27,1.12-5.13-.22-5.13-.22,6.24-3.79,4.91-3.79-10.26-1-10.26-1,5.69-11.93,17.06-13S298.6,122.23,298.6,122.23Z"/><path class="cls-15" d="M356.17,156.11c-1-.43-5.42-1.89-6.8-4.32s1.4-11.56,2.56-14.52,5-5.84,6.68-4.89-2.51,5.5-2.1,5.63,3.48-5.48,5.89-4.06-2.29,6.15-1.7,6.52,2.39-3.57,4.24-1.83-1.29,4.87-.21,4.83c.12-.23.81-2.73,2.24-.83.88,1.58-.53,4.49-.53,4.49s-3.76,5.42-6.76,7.57S356.17,156.11,356.17,156.11Z"/><path class="cls-15" d="M350.5,153.11c-.12-.6-1.17-.79-1.42-2.25a90,90,0,0,1-.75-11c0-.79,1.84-10.16,2.68-8.89,2.21,3.34-.56,7.77,1.84,12.84C355.52,149.47,354.19,154.45,350.5,153.11Z"/><path class="cls-12" d="M300.6,152c-3,0-6,3.23-6.68,7.21s1.2,7.21,4.21,7.21,6-3.23,6.68-7.21S303.61,152,300.6,152Z"/><path class="cls-12" d="M245.47,138.18c-3,0-5.64,3.23-5.87,7.21s2,7.21,5,7.21,5.64-3.23,5.87-7.21S248.48,138.18,245.47,138.18Z"/><path class="cls-8" d="M331.12,400.67c2.06-5.54-.67-16.87-2.22-20.95a65.48,65.48,0,0,0-3.52-7.4l.67.35c1.58.79,6.34,6.65,7.6,16.47,1.18,9.15,0,16-5,15.06A6.86,6.86,0,0,0,331.12,400.67Z"/><path class="cls-35" d="M326.08,381.27a.79.79,0,0,0,0-1.58,25,25,0,0,0-3.26,1,13.12,13.12,0,0,0-2.24,1.08,11.59,11.59,0,0,0-2.42,2,.79.79,0,1,0,1.22,1,9.9,9.9,0,0,1,2.06-1.68,11.69,11.69,0,0,1,2-.93C324.75,381.66,326,381.27,326.08,381.27Z"/><path class="cls-35" d="M319.06,386.82a.79.79,0,0,0,1,1.24,15.5,15.5,0,0,1,3.53-2.14,22.44,22.44,0,0,1,4-1.25.79.79,0,0,0-.35-1.54,23.93,23.93,0,0,0-4.28,1.34A17.05,17.05,0,0,0,319.06,386.82Z"/><path class="cls-35" d="M320.24,390.1a.79.79,0,0,0,1.18,1.05,12.52,12.52,0,0,1,3.12-1.76,11.68,11.68,0,0,1,3.29-1.09.79.79,0,1,0,0-1.58,12.44,12.44,0,0,0-4,1.22A13.44,13.44,0,0,0,320.24,390.1Z"/><path class="cls-35" d="M226,377.83a.53.53,0,1,0,.58-.88l-.31-.19,0,0a4.62,4.62,0,0,0-2.41-.53,2.55,2.55,0,0,0-2,1l-.08.14a.53.53,0,0,0,.93.5l0-.06a1.54,1.54,0,0,1,1.21-.54,3.55,3.55,0,0,1,1.84.4h0Z"/><path class="cls-8" d="M217.85,391.18c10.43-1.61,14.44-11.68,18.5-18.21l1.47,1.77s-4.59,8.87-7.76,13.15-14.49,8.32-15.92,4a3.22,3.22,0,0,1-.16-1A8.56,8.56,0,0,0,217.85,391.18Z"/><path class="cls-35" d="M224.18,381.16a.53.53,0,1,0,.58-.88l-.31-.19,0,0a4.62,4.62,0,0,0-2.41-.53,2.55,2.55,0,0,0-2,1l-.08.14a.53.53,0,1,0,.93.5l0-.06a1.54,1.54,0,0,1,1.21-.54,3.55,3.55,0,0,1,1.84.4h0Z"/><path class="cls-35" d="M221.76,384.21a.53.53,0,0,0,.58-.88l-.31-.19,0,0a4.62,4.62,0,0,0-2.41-.53,2.55,2.55,0,0,0-2,1l-.08.14a.53.53,0,1,0,.93.5l0-.06a1.54,1.54,0,0,1,1.21-.54,3.55,3.55,0,0,1,1.84.4h0Z"/><path class="cls-36" d="M285.49,188.45s1.91,34.4,1.27,44.54-3.39,14.9-5,12.36-8-53.2-7.47-56.58S285.57,186.16,285.49,188.45Z"/><path class="cls-37" d="M240.71,184.65S229.18,215.87,227.93,226s.62,14.9,2.67,12.37,12-46,20.22-53.9C251.76,182,241.93,180.45,240.71,184.65Z"/><path class="cls-6" d="M296.47,119.56c.85-5-9.42-12.92-13.7-11.32C287.9,110.6,293.35,114.82,296.47,119.56Z"/><path class="cls-6" d="M289.26,116.39c-12.92-8.79-12.53-6.75-27.64-5C272.74,114.51,270.84,109,289.26,116.39Z"/><path class="cls-38" d="M278.41,105.06C264,101,256.47,112.92,250,106.25c-.54,1.16,1.93,2.28,2.61,2.53C261.11,111.89,265.17,105.06,278.41,105.06Z"/><path class="cls-6" d="M272.31,101.58c-4.49-2.24-4.91-2.72-9.82-1.58C266.83,101.63,267.69,102.44,272.31,101.58Z"/><path class="cls-38" d="M290.85,121.14c-3.39,2.85-10.7,5.82-15,6.26C275.57,129.81,290.38,127,290.85,121.14Z"/><path class="cls-38" d="M284.19,118.21c-4.08,2.48-16.89,4.88-21.86,4.91C266.15,126.42,284.22,121.87,284.19,118.21Z"/><path class="cls-38" d="M279.28,116.39c-20.69-4.27-23.87-1.53-33.1,15C260.69,115.79,254.26,116.58,279.28,116.39Z"/><path class="cls-6" d="M258.38,113.06c-5.68,1.7-13.24,1.21-17,2.38C244.81,117.91,258.38,116,258.38,113.06Z"/><path class="cls-6" d="M263.68,101.9c-5.35.72-12.85,1.9-18.14.24C248.68,107.91,259.88,103.86,263.68,101.9Z"/><path class="cls-38" d="M298.09,128c1.79,5.4,4.36,10.49,3.78,16.26l.06,0,0,0c0,.11,0,.06,0,.14s.08,0,.12,0C306.86,140.93,299.92,130.55,298.09,128Z"/><path class="cls-6" d="M303.2,131.24c.64,3.09,1.65,6.08,2,9.22l.05-.09c0,.2,0,.09,0,.33C306.58,140.86,308,133.9,303.2,131.24Z"/><path class="cls-39" d="M297.85,122.41c-6.3,1.09-3.55-.15-8.35,3.48C295.49,124.93,292.68,126,297.85,122.41Z"/><path class="cls-31" d="M355.64,153.14a30.82,30.82,0,0,0,4.85-2.87q.42-.31.79-.61l1.81,1.72a21.9,21.9,0,0,1-3.43,3.3,8.79,8.79,0,0,1-2.74,1.49c-.6.15-.74-.07-.74-.07-.31-.14-1-.37-1.75-.71l.55-1C355.41,153.59,355.64,153.14,355.64,153.14Z"/><path class="cls-31" d="M354.42,155.4c.79.34,1.44.58,1.75.71,0,0,.14.21.74.07-11.47,21.4-23,34.75-38.65,43.76l-.64.35-.74-5.34s14.23-8.63,22.78-18.05C346.14,169.76,352,159.81,354.42,155.4Z"/><path class="cls-40" d="M301.53,207.24a24.38,24.38,0,0,0,4.36-3.3,67.06,67.06,0,0,0,10.4-13.27l.59,4.28.74,5.34L319,210l-18,3.21-2.66.48-1.85.33-2.15.38-7.65,1.37,0-.78q0-1-.07-2.1c-.07-2.08-.15-4.17-.23-6.21q0-1.12-.09-2.2c-.1-2.42-.21-4.72-.3-6.78-.14-2.85-.26-5.25-.34-6.89l.57,7.09.56,6.94.41,5,.16,2s.46,0,1.33-.18a39.14,39.14,0,0,0,4.78-1.18h0c1.2-.37,2.57-.84,4.1-1.44q1.23-.48,2.6-1.07A14.47,14.47,0,0,0,301.53,207.24Z"/><path class="cls-41" d="M282.92,246c-.43,6.62-.86,13.52-1.21,19.8-.11,1.88-.2,3.71-.29,5.46-.31,6-.51,11.1-.51,14.18,0,1.69-1.79,2.83-4.77,3.49-11.55,2.58-41-1.93-53.77-8.74q-.92-.49-1.73-1,1.22-.06,2.58-.17a87.31,87.31,0,0,0,29.44-7.8l.89-.42q1.52-.72,2.91-1.45c18.58-9.71,21.77-20.06,22.07-22.44s-3.06-42.69-3.67-49.9l-.09-1.1.11,1.11c1.55,15.32,5.67,46.37,6.91,48.34C282.12,245.89,282.51,246.1,282.92,246Z"/><path class="cls-16" d="M300,154.52c4,0,3.89,7.26-.55,9.19-2.38,1-2.73-1.07-2.3-1.74s1.54-.36,2.3-1.82-.45-1.07-.63-2.69A4,4,0,0,1,300,154.52Z"/><path class="cls-16" d="M246.76,140.59c-3.39-2.15-7.17,4.05-4.44,8.06,1.46,2.14,2.88.56,2.87-.24s-1.11-1.13-1-2.77,1-.66,2-1.94A4,4,0,0,0,246.76,140.59Z"/><path class="cls-6" d="M300.31,144.74s-5.39,14.26-4.79,14.37,5.31-8.39,5.31-8.39Z"/><path class="cls-6" d="M250.22,132.68s-1.42,15.17-2,15-1.08-9.87-1.08-9.87Z"/><path class="cls-9" d="M279.72,337.54c-3.33-4.12-13.94-39.91-13.94-39.91s-8.71-.79-27.4-7.76a82.46,82.46,0,0,1-16.85-8.52l.83-1.15c12.77,6.82,42.22,11.32,53.77,8.74,5.08,17.91,11.46,41.91,11.46,41.91l34.06,38.53s-.06.28-.17.74a32.42,32.42,0,0,1-1.3,4.2l-7.67-6.79C300.15,356.57,281.89,340.23,279.72,337.54Z"/><path class="cls-9" d="M249.55,303.1c-2.15-.24-35.46,21-35.46,21S232.17,365.88,232.4,368a1.5,1.5,0,0,1,0,.45c-.22,1.09-1.55,2.29-3.32,3l-2-5.13L211,325.18l-10.29-1.58,7-4.91,34.54-21Z"/><path class="cls-17" d="M273.16,180.95c9.33-.66,17.21-6.61,22.25-15.61l.12.12c-4.75,10.56-13,17.73-23,18.57a24.73,24.73,0,0,1-7.29-.5,24.36,24.36,0,0,1-6.51-2.38c-9.4-5.1-13.71-16.07-12.91-28.73l.22-.07c0,11.62,4.65,21.45,13.88,26a25.46,25.46,0,0,0,6.05,2.07A25.85,25.85,0,0,0,273.16,180.95Z"/><path class="cls-42" d="M118.42,142.61a4.1,4.1,0,0,1,3.35,4.74,4.06,4.06,0,0,1-1.78,2.72,2.41,2.41,0,0,1-.3.18l-.28.1a1.52,1.52,0,0,1-.58,0h-.11a1.77,1.77,0,0,1-.35-.1,1.68,1.68,0,0,1-1-1.81l.46-2.67h0a1.67,1.67,0,0,0,0-.29s0-.07,0-.1a1.18,1.18,0,0,0,0-.15h.08a1.41,1.41,0,0,1,1.16,1.63l-.21,1.21a.57.57,0,0,0,.46.67.56.56,0,0,0,.5-.16l0-.05.09-.11.06-.09a2.57,2.57,0,0,0,.23-.36c0-.07.08-.16.11-.24a3,3,0,0,0,.23-.75,3.22,3.22,0,0,0-2.62-3.72,2.72,2.72,0,0,0-1,0h-.07a3.67,3.67,0,0,0-.68.19l-.21.09-.25.13-.11.07-.1.07a3.74,3.74,0,0,0-1.64,2.51,3.79,3.79,0,0,0,.71,2.94,3.52,3.52,0,0,0,.39.44h0a4.1,4.1,0,0,1,3.42-7.11"/><path class="cls-43" d="M116.16,144.28a1.41,1.41,0,0,1,.92.59,1.45,1.45,0,0,1,.19.41v0a1.43,1.43,0,0,1,0,.59l-.49,2.85s0,.07,0,.1a1.72,1.72,0,0,0,.09.75v.06a1.58,1.58,0,0,0,.56.75,1.23,1.23,0,0,0,.33.18l.17,0,.15,0h0a1.9,1.9,0,0,0,.34,0l-.08,0h-.19a3.46,3.46,0,0,1-1.7-.15h-.07a1.81,1.81,0,0,1-1-1,1.92,1.92,0,0,1-.14-.62,1.53,1.53,0,0,1,0-.38l.65-3.75a1.65,1.65,0,0,0,0-.3h0v-.08a1.51,1.51,0,0,0,0-.17l.16,0"/><path class="cls-44" d="M162.84,129.51a6.71,6.71,0,0,1,4.4,2.82,6.92,6.92,0,0,1,.91,1.94l0,.14a6.83,6.83,0,0,1,.14,2.81L166,150.82c0,.17-.06.33-.07.5a8.22,8.22,0,0,0,.42,3.58l.06.17,0,.1a7.53,7.53,0,0,0,2.65,3.58,5.89,5.89,0,0,0,1.58.85,7,7,0,0,0,.83.22c.24.06.47.1.73.14l.23,0a9,9,0,0,0,1.6,0l-.37.07-.41.07h-.07l-.44.06a16.52,16.52,0,0,1-8.13-.69l-.17-.06-.08,0h0l-.05,0a8.63,8.63,0,0,1-4.64-4.64,9.16,9.16,0,0,1-.64-3,7.32,7.32,0,0,1,.11-1.82l3.09-17.87a7.85,7.85,0,0,0,.06-1.43.34.34,0,0,1,0-.06c0-.12,0-.25,0-.37a7.19,7.19,0,0,0-.16-.83,5.33,5.33,0,0,1,.78.08"/><path class="cls-42" d="M119.22,139.46c-.09,0-.06-.2-.24-.24l-2.83-.5c-.5-.09-.43.17-.57.14s-.09-.12,0-.35l.44-2.56c0-.12.05-.17.13-.15l.4.07c.19,0,.25.08.24.15s-.2,0-.25.29l-.27,1.58c0,.15,0,.17.09.19l.92.16c.07,0,.12,0,.14-.11l.17-1c0-.13-.1-.15-.09-.26s.06-.08.14-.07l.5.09c.08,0,.15,0,.14.12s-.14.1-.16.22l-.17,1a.1.1,0,0,0,.09.12l1.11.19c.19,0,.19-.14.3-.12s.11.12.08.31l-.08.45c0,.16-.05.27-.17.25"/><path class="cls-42" d="M119.92,135.57c-.14,0,0-.22-.3-.27l-3-.52c-.33-.06-.27.16-.38.14s-.08-.08-.06-.2l.11-.62c0-.12,0-.2.13-.19s0,.19.28.24l2.77.48c.12,0,.14,0,.15-.09l.26-1.48c0-.22-.1-.28,0-.38s.14,0,.18,0l.33.3a.14.14,0,0,1,.05.15l-.39,2.24c0,.13,0,.2-.12.18"/><path class="cls-42" d="M117,129.51a2.05,2.05,0,1,1,1.69,2.36,2,2,0,0,1-1.69-2.36m3.45.64a1.46,1.46,0,1,0-1.64,1.06,1.34,1.34,0,0,0,1.64-1.06"/><path class="cls-42" d="M118.33,122.32l-.1.56c0,.07,0,.2,0,.21s.13-.19.39,0l1.71,1c.09.06.06.12,0,.14l-2,.46c-.25.06-.19-.14-.3-.16s-.11,0-.13.18l-.11.64c0,.08,0,.14.06.15s.07-.1.39-.16l.52-.1,1.24-.29.07,0,1.83-.45c.1,0,.1-.11,0-.15l-3.15-1.86c-.28-.17-.2-.28-.34-.3s-.12.1-.13.21"/><path class="cls-42" d="M120.51,125.31l.54.32.61.36a.07.07,0,0,1,0,.13l-3.61.82c-.38.09-.32.23-.45.21s-.08-.07-.06-.18l.1-.57c0-.15.06-.2.15-.18s0,.19.29.12l2-.48h0c.08,0,.07-.08,0-.13l-.36-.22Z"/><rect class="cls-42" x="113.2" y="131.18" width="16.96" height="0.19" transform="translate(-28.41 228.82) rotate(-80.19)"/><path class="cls-42" d="M121.94,139.66s0,0,0,0l-.17,0h0l-.46.17s0,0-.06,0,0,0,0,0l0-.14s0,0,0,0,0,0,.05,0l.31-.12s0,0,0,0l-.25-.22s0,0-.06,0,0,0,0,0l0-.15s0,0,0,0,0,0,.06.08l.36.31,0,0,.17,0s0,0,.06,0,0,0,0,0l0,.14s0,0,0,0"/><path class="cls-42" d="M121.42,138.07a.41.41,0,1,1,.33.47.39.39,0,0,1-.33-.47m.68.13a.29.29,0,1,0-.33.21.27.27,0,0,0,.33-.21"/><path class="cls-42" d="M122.05,137.09l-.35-.06c-.05,0,0,0-.07,0s0,0,0,0l0-.13s0,0,0,0,0,0,.06,0l.35.06c.12,0,.25,0,.27-.16s-.08-.22-.2-.24l-.35-.06c-.06,0-.05,0-.07,0s0,0,0,0l0-.12s0,0,0,0,0,0,.06,0l.34.06c.22,0,.33.16.29.38a.31.31,0,0,1-.4.27"/><path class="cls-42" d="M122.64,135.58s0,0-.05,0l-.55-.1s0,0,0,0l0,.14c0,.06,0,.06,0,.08s0,0,0,0h-.07s0,0,0,0l.1-.58s0,0,0,0H122s.05,0,.05,0,0,0,0,0l0,.14s0,0,0,0l.55.1s0,0,.06,0,0,0,0,0l0,.16s0,0,0,0"/><path class="cls-42" d="M122.82,134.54s0,0-.06-.06l-.6-.1c-.05,0,0,0-.07,0s0,0,0-.05l0-.13s0,0,0,0,0,0,.05.05l.2,0s0,0,0,0l.06-.34s0,0,0,0l-.2,0s0,0-.07,0,0,0,0-.06l0-.11s0,0,0,0,0,0,.05.05l.61.11s0,0,.07,0,0,0,0,.06l0,.13s0,0,0,0,0,0-.06-.06l-.22,0s0,0,0,0l-.06.35s0,0,0,0l.22,0c.06,0,.05,0,.08,0s0,0,0,.05l0,.14s0,0,0,0"/><path class="cls-42" d="M123.26,132s0,0-.06-.06l-.56-.31s0,0-.06,0,0,0,0,0l0-.16s0,0,0,0,0,0,.06,0l.64-.13s0,0,.07,0,0,0,0,0l0,.13s0,0,0,0,0,0-.05,0h-.06s0,0,0,0l0,.26a0,0,0,0,0,0,0l0,0c.06,0,0,0,.08,0s0,0,0,.05l0,.12s0,0,0,0m-.15-.5s0,0,0,0l-.32.06s0,0,0,0l.29.16s0,0,0,0Z"/><path class="cls-42" d="M123.12,130.62a.38.38,0,0,1-.32-.46.35.35,0,0,1,.1-.22s0,0,0-.06,0,0,0,0l.06.06s0,0,0,0l0,0a.24.24,0,0,0-.08.16.27.27,0,0,0,.23.32.28.28,0,0,0,.33-.21.24.24,0,0,0,0-.19s0,0-.05,0a0,0,0,0,1,0,0l.11-.06a0,0,0,0,1,0,0s0,0,0,.06a.38.38,0,0,1,0,.27.4.4,0,0,1-.47.32"/><path class="cls-42" d="M123.71,129.4s0,0-.06-.06l-.56-.31s0,0-.06,0,0,0,0,0l0-.16s0,0,0,0,0,0,.06,0l.64-.13s0,0,.07,0,0,0,0,0l0,.13s0,0,0,0,0,0-.05,0h-.06s0,0,0,0l0,.26a0,0,0,0,0,0,0l0,0c.06,0,0,0,.08,0s0,0,0,.05l0,.12s0,0,0,0m-.15-.5s0,0,0,0l-.32.06s0,0,0,0l.29.16s0,0,0,0Z"/><path class="cls-42" d="M123.94,128.05s0,0-.06-.05l-.58-.1c-.07,0-.06,0-.09,0s0,0,0-.05l.05-.3a.36.36,0,0,1,.44-.3.37.37,0,0,1,.32.43L124,128s0,0,0,0m0-.33a.25.25,0,0,0-.23-.32.24.24,0,0,0-.31.22l0,.13s0,0,0,0l.49.08s0,0,0,0Z"/><path class="cls-42" d="M124.18,126.71s0-.05-.06-.06l-.59-.1c-.07,0-.05,0-.09,0s0,0,0-.07l.09-.52s0,0,0,0h.08s0,0,0,0,0,0,0,.06l-.06.34a0,0,0,0,0,0,0l.16,0s0,0,0,0l0-.22s0,0,0-.06,0,0,0,0l.09,0s0,0,0,0,0,0,0,0l0,.22s0,0,0,0l.17,0s0,0,0,0l.06-.34c0-.05,0,0,0-.07s0,0,0,0h.09s0,0,0,0l-.1.56s0,0,0,0"/><path class="cls-42" d="M124.4,125.42s0,0-.08-.06l-.58-.1c-.06,0,0,0-.08,0s0,0,0,0l0-.15s0,0,0,0,0,0,.05.05h0l.32-.18s0,0,0,0l-.23-.27,0,0h0s0,0-.06,0,0,0,0-.05l0-.12s0,0,0,0,0,0,.06.06l.57.1c.08,0,.07,0,.1,0s0,0,0,0l0,.12s0,0,0,0,0,0-.08-.05l-.33-.06s0,0,0,0l.21.25s0,0,0,0l-.29.18s0,0,0,0l.33.06c.06,0,.06,0,.09,0s0,0,0,.05l0,.12s0,0,0,0"/><path class="cls-42" d="M124.7,123.68s0,0,0,0l-.17,0h0l-.46.17s0,0-.06,0,0,0,0,0l0-.14s0,0,0,0,0,0,.05,0l.31-.12s0,0,0,0l-.25-.22s0,0-.06,0,0,0,0,0l0-.15s0,0,0,0,0,0,.06.08l.36.31,0,0,.17,0s0,0,.06,0,0,0,0,0l0,.14s0,0,0,0"/><path class="cls-9" d="M286.11,147.71c-1.5,0-3,2-3.43,4.52s.5,4.52,2,4.52,3-2,3.43-4.52S287.62,147.71,286.11,147.71Z"/><path class="cls-9" d="M260.36,141.35c-1.5,0-3,2-3.43,4.52s.5,4.52,2,4.52,3-2,3.43-4.52S261.86,141.35,260.36,141.35Z"/><path class="cls-45" d="M273.74,150.64c0,.89-9,6.58-9,6.58-1.63,2.67,6.72,8,8.81,5.46a8.6,8.6,0,0,1-7.08-5C268.21,156.54,273.91,153,273.74,150.64Z"/><path class="cls-6" d="M280.37,144.21c2.83.26,10.21,1.53,12.21,2.4s2.28-2.43.46-3-8.78-2.23-11.25-2.61S279.59,144.37,280.37,144.21Z"/><path class="cls-6" d="M266.42,141.16c-2.55-1.27-9.49-4.08-11.64-4.39s-.66-3.26,1.21-2.83,8.64,2.73,10.93,3.7S267,141.71,266.42,141.16Z"/><path class="cls-30" d="M259.09,162.91a10.41,10.41,0,0,0-.68,1.54,9.87,9.87,0,0,0,6,12.67A10,10,0,0,0,277,170.75a10.4,10.4,0,0,0,.42-1.62Z"/><path class="cls-46" d="M275.64,168.53l-.59,1.65a1.28,1.28,0,0,1-1.63.77l-12.85-4.61a1.28,1.28,0,0,1-.77-1.63l.5-1.39Z"/><path class="cls-9" d="M68.52,152.38c1.49,0,3,2,3.41,4.49s-.5,4.49-2,4.49-3-2-3.41-4.49S67,152.38,68.52,152.38Z"/><path class="cls-9" d="M93.48,144.68c1.49,0,3,2,3.41,4.49s-.5,4.49-2,4.49-3-2-3.41-4.49S92,144.68,93.48,144.68Z"/><path class="cls-45" d="M80.69,155.38c0,.73,7.34,5.35,7.34,5.35,1.33,2.17-5.46,6.51-7.16,4.44a7,7,0,0,0,5.76-4.1C85.19,160.17,80.55,157.29,80.69,155.38Z"/><path class="cls-6" d="M72,149.75c-4.18-1.77-10.24-.42-11,4.77-.38,2.59-1.35,1.35-1.27-.28.27-6,9.18-9.32,12.58-6.58C73.09,148.26,72.49,149.75,72,149.75Z"/><path class="cls-30" d="M93.13,166.31a10.33,10.33,0,0,1,.67,1.53,9.8,9.8,0,0,1-5.93,12.59,9.94,9.94,0,0,1-12.48-6.33,10.32,10.32,0,0,1-.42-1.61Z"/><path class="cls-46" d="M76.69,171.9l.59,1.64a1.27,1.27,0,0,0,1.62.76l12.77-4.58a1.27,1.27,0,0,0,.76-1.62l-.5-1.38Z"/><path class="cls-6" d="M86,145.48c2.07-4,7.58-6.89,11.5-3.4,2,1.74,1.9.17.8-1-4.06-4.44-13-1.27-13.87,3C84.26,145,85.68,145.77,86,145.48Z"/><polygon class="cls-47" points="357.62 112.74 353.57 110.49 353.65 115.12 357.62 112.74"/><path class="cls-48" d="M359.84,70c6.6,12.29,6.4,35.84-5.9,42.44s-32-6.25-38.62-18.54A25.26,25.26,0,1,1,359.84,70Z"/><polygon class="cls-49" points="389.82 95.12 388.98 90.57 385.46 93.57 389.82 95.12"/><path class="cls-50" d="M424.21,69.72c-5.31,12.9-23.62,27.7-36.53,22.39s-15.51-28.71-10.2-41.61a25.26,25.26,0,1,1,46.73,19.22Z"/><path class="cls-51" d="M359.84,70a25.14,25.14,0,0,0-8.89-9.49c6.9,17,5.58,44.53-9.59,52.68-.21.11-.42.2-.63.3,4.72,1.16,9.34,1,13.23-1.06C366.24,105.88,366.44,82.33,359.84,70Z"/></g></g></svg>