<svg xmlns="http://www.w3.org/2000/svg" viewBox="0 0 359.02 105.91"><defs><style>.cls-1{fill:#fff;}.cls-2{fill:#5e2775;}.cls-3{fill:#87ba0b;}</style></defs><title>Ресурс 1</title><g id="Слой_2" data-name="Слой 2"><g id="Режим_изоляции" data-name="Режим изоляции"><path class="cls-1" d="M140.21,63.13c0-1.15,2.45-1.15,2.45-3.61l.15-37.06c0-6.58-3-5.06-3-6.94,0-1.45,1.38-1.37,4.41-1.37h33.53c1.58,0,2.24.29,2.24,1.3v5.27c0,2.53-.44,3.4-1.38,3.4-1.95,0-.43-2.53-4.26-2.53H153.64c-1.95,0-2.24.29-2.24,1.52l-.07,12c0,.94.51,1.52,1.74,1.52h12.64c1.66,0,1.74-1.67,3.11-1.67.87,0,1.15.58,1.15,1.59v6.51c0,1.08-.14,2-1.15,2s-1.52-1.52-3.11-1.52h-13a1.33,1.33,0,0,0-1.38,1.37v14.6c0,2.46,2.17,2.09,2.17,3.54,0,1.66-1.23,1.66-3.83,1.66h-5.92c-2.1,0-3.54-.07-3.54-1.59"/><path class="cls-1" d="M191.2,63.57c0-1.87,2.75-1,2.75-4.4V19.86c0-4.33-2.6-3-2.6-4.47,0-.87.86-1.23,2.45-1.23h8.1c1.58,0,2.67.14,2.67,1.23s-2.38.86-2.38,4.11V55.77c0,1.59.57,1.74,1.44,1.74h19.44c2.88,0,3.39-1.88,4.83-1,.58.36.36,1.8,0,2.38l-3,4.84a1.8,1.8,0,0,1-1.8,1H193.8c-1.66,0-2.6-.07-2.6-1.16"/><path class="cls-1" d="M261.78,13.08c12.86.14,25.57,8.88,25.57,26.65S274.06,66.18,260.91,66c-12.79-.22-25.43-8.88-25.43-26.23,0-17.77,13.22-26.73,26.3-26.65M261.2,58.3c8.81.15,17.7-6.07,17.7-18.57s-8.6-18.85-17.19-18.93C253,20.73,244.15,27,244.15,39.73c0,12.21,8.45,18.43,17,18.57"/><path class="cls-1" d="M356.06,14.15h-7.39c-.94,0-2.57-.07-2.57,1.08,0,2.19,2.71,1.25,1.35,4.91l-8.74,23.93c-.59,1.21-1.36,1-1.81,0L326.66,19.58c-1.33-3,1.43-2.68,1.43-4.18,0-1.25-.73-1.25-2.62-1.25h-8.42c-1.08,0-1.82.38-1.82,1.08,0,1.88,1.43.66,3,4.63l2.48,6.44,6.41,15.08.38.87,9.72,22.33c.52,1.22,1.6,1,2,0l16.76-44.2c1.49-3.9,3.1-3.2,3.1-5,0-1.25-1.53-1.25-3-1.25"/><path class="cls-1" d="M323,48.53l-2.82,7.59-3.23,8.6a.92.92,0,0,1-1.75,0L296.74,20.59c-1.95-4.7-3.62-3.62-3.62-5.26,0-1,.66-1.18,2.16-1.18h7.45c1.95,0,2.61.31,2.61,1.46s-2.26.94-.94,4L315,44.14l.21.45c.56.9,1.22.7,1.68-.45l2-5.09Z"/><rect class="cls-1" x="140.21" y="75.3" width="218.81" height="2.48"/><path class="cls-2" d="M106,53a52.93,52.93,0,0,1-53,53,52.36,52.36,0,0,1-38.43-16.6,31.26,31.26,0,0,1-3-3.47A28.43,28.43,0,0,1,9.8,82.45,19.51,19.51,0,0,1,8.05,75.2,13.62,13.62,0,0,1,8,73.81v-.08A22.66,22.66,0,0,1,8.54,69,20.82,20.82,0,0,1,14.62,58.4a20.76,20.76,0,0,1,14.77-6H64.45A21.94,21.94,0,0,0,68.1,52c.43-.11.82-.23,1.25-.35a14,14,0,0,0,1.87-.72,7.67,7.67,0,0,1,0,1.07A18.25,18.25,0,0,1,53.05,70.22H37.19a7.4,7.4,0,0,0-7.5,7.31A7.55,7.55,0,0,0,33.61,84c.53.33,1.07.63,1.6.92s.81.43,1.24.63a32.92,32.92,0,0,0,5.13,2.15c1,.34,2.14.63,3.24.9a39.1,39.1,0,0,0,10,1.28A41.49,41.49,0,0,0,96.4,48.33,35.05,35.05,0,0,0,94.52,36c-.12-.33-.22-.55-.35-.9a47.29,47.29,0,0,0-3.85-8.27c-.51-.8-1.06-1.64-1.66-2.51a34,34,0,0,0-2.24-2.94c-.41-.5-.68-.8-1.09-1.23s-.62-.7-1.08-1.16A48.32,48.32,0,0,0,48.7,3.67,48.9,48.9,0,0,0,12.87,19.13a45.56,45.56,0,0,0-4.72,5.92H8.07A52.95,52.95,0,0,1,106,53"/><path class="cls-3" d="M79.78,27.89a18.15,18.15,0,0,1-5.47,13,18.69,18.69,0,0,1-4.74,3.33l-.35.18a18.61,18.61,0,0,1-7.41,1.68H24.45c-.47,0-.92,0-1.37,0a22.11,22.11,0,0,0-9.35,2.75l-.43.25-.25.14A20.42,20.42,0,0,0,4.74,58,16,16,0,0,0,3.21,62.6,17.91,17.91,0,0,0,3,64.91a19.26,19.26,0,0,0,0,2c0,.27,0,.43,0,.64a23.74,23.74,0,0,0,.65,4.28c-.12-.28-.23-.57-.37-1s-.24-.71-.37-1.06l-.06-.18L2.5,68.51a44.62,44.62,0,0,1-1.9-22L.68,46l0-.22,0-.12,0-.15A23.3,23.3,0,0,1,11,31,25,25,0,0,1,18.59,28a20.18,20.18,0,0,1,4.9-.55h49a20.68,20.68,0,0,0,3.84-.49.9.9,0,0,1,.16,0l1-.26a19.85,19.85,0,0,0,2.15-.82,14.62,14.62,0,0,1,.14,2.1"/><path class="cls-1" d="M143.65,98.14c0-.24.46-.23.46-.73V95.17a.86.86,0,0,0-.07-.46l-3.18-5.42c-.34-.59-.65-.33-.65-.73,0-.22.25-.22.56-.22h1.8c.23,0,.38,0,.38.22,0,.37-.57.13-.23.7l2.18,3.67c.07.13.17.12.24,0l2.22-3.68c.27-.45-.2-.38-.2-.69s.15-.22.37-.22h1.92c.17,0,.45,0,.45.22,0,.43-.38.13-.83.88L146,94.69a.87.87,0,0,0-.12.46v2.26c0,.53.45.43.45.73s-.17.21-.44.21h-1.79c-.18,0-.43,0-.43-.21"/><path class="cls-1" d="M162.68,88.13a5.24,5.24,0,1,1-5.21,5.28,5,5,0,0,1,5.21-5.28m-.12,9a3.72,3.72,0,1,0-3.37-3.67,3.42,3.42,0,0,0,3.37,3.67"/><path class="cls-1" d="M176.5,94l0-4.57c0-.68-.45-.52-.45-.83s.18-.25.45-.25h1.66c.33,0,.48,0,.48.26s-.5.1-.5.84V94c0,1.62.73,3.13,2.65,3.13s2.57-1.53,2.57-3.09V89.49c0-.82-.44-.62-.44-.89s.2-.26.46-.26h1.54c.27,0,.45,0,.45.29s-.42.13-.42.86V94c0,2.83-1.34,4.56-4.16,4.56s-4.25-1.71-4.26-4.56"/><path class="cls-1" d="M197,98.12c0-.25.5-.27.5-.78l0-7.21c0-.26-.05-.4-.39-.4h-1.85c-.83,0-.67.38-.94.38s-.26-.11-.26-.53v-.9c0-.24.11-.33.37-.33h7.65c.2,0,.35.09.35.3v.8c0,.55-.09.72-.28.72s-.15-.43-.71-.43H199.6c-.26,0-.37.12-.37.39l0,7.23c0,.55.49.49.49.75s-.13.25-.35.25h-2c-.21,0-.35,0-.35-.23"/><path class="cls-1" d="M210.7,98.14c0-.3.59-.3.59-.94V89.37c0-.68-.5-.37-.5-.81,0-.17.15-.22.63-.22h1.75c.22,0,.45,0,.45.22s-.57.23-.57.81V92c0,.43.22.47.49.49l4.49,0c.24,0,.46,0,.46-.41V89.36c0-.62-.55-.47-.55-.8s.26-.22.77-.22h1.43c.32,0,.58,0,.58.22s-.53.25-.53.75v8c0,.57.58.52.58.79s-.27.25-.75.25h-1.68c-.13,0-.44,0-.44-.17s.6-.3.6-.9l-.06-2.82c0-.3-.14-.41-.34-.41h-4.65c-.21,0-.41.07-.41.23V97.2c0,.77.64.57.64.94,0,.2-.31.21-.67.21h-1.78c-.38,0-.54,0-.54-.21"/><path class="cls-1" d="M244.32,98.08c0-.36.49-.23.7-.86l2.72-7.83c.17-.52-.2-.5-.2-.78s.13-.27.34-.27H250c.23,0,.36.08.36.27s-.47.28-.27.78l3.06,7.9c.21.56.63.46.63.79s-.14.27-.54.27H251.5c-.33,0-.47,0-.47-.24,0-.41.5-.24.33-.73l-.26-.71c-.07-.2-.19-.23-.37-.23h-3.46a.39.39,0,0,0-.39.2l-.13.5c-.21.83.22.48.22,1,0,.22-.22.24-.63.24h-1.62c-.2,0-.4,0-.4-.27m6-3.06c.17,0,.2-.16.14-.31L249,90.76c-.06-.16-.19-.14-.23,0l-1.39,4c-.06.18,0,.26.2.26Z"/><path class="cls-1" d="M261.19,93.29a4.94,4.94,0,0,1,5.19-5.13,4.58,4.58,0,0,1,3,.83c.34.25.61-.09.81.07s0,.38-.11.61l-.6.93c-.13.2-.25.33-.46.22s-.07-.33-.36-.59a3.11,3.11,0,0,0-2.24-.61,3.47,3.47,0,0,0-3.51,3.67,3.62,3.62,0,0,0,3.39,3.79,3.18,3.18,0,0,0,2.36-.71c.42-.42.09-.53.28-.72a.24.24,0,0,1,.39,0l1,1.2a.25.25,0,0,1,0,.36c-.15.14-.26-.07-.75.27a4.86,4.86,0,0,1-3.32,1.06,5.11,5.11,0,0,1-5.07-5.28"/><path class="cls-1" d="M278,98.08c0-.36.49-.23.7-.86l2.72-7.83c.17-.52-.2-.5-.2-.78s.13-.27.34-.27h2.1c.23,0,.36.08.36.27s-.47.28-.27.78l3.06,7.9c.22.56.63.46.63.79s-.14.27-.54.27h-1.72c-.33,0-.47,0-.47-.24,0-.41.5-.24.33-.73l-.26-.71c-.07-.2-.19-.23-.37-.23h-3.46a.39.39,0,0,0-.39.2l-.13.5c-.21.83.22.48.22,1,0,.22-.22.24-.63.24h-1.62c-.2,0-.4,0-.4-.27M284,95c.17,0,.2-.16.14-.31l-1.41-3.95c-.06-.16-.19-.14-.23,0l-1.39,4c-.06.18,0,.26.2.26Z"/><path class="cls-1" d="M295.56,98.07c0-.37.56-.19.56-.93V89.6c0-.87-.53-.68-.53-1s.34-.22.64-.22h4A4.62,4.62,0,0,1,305,93.28c0,2.83-1.84,5.07-4.76,5.07h-4c-.29,0-.63,0-.63-.28m4.18-1.19c2.17,0,3.5-1.14,3.5-3.63s-1.4-3.45-3.5-3.43h-1.69c-.23,0-.34.12-.34.3v6.36c0,.33.07.39.34.39Z"/><path class="cls-1" d="M313.11,98.18c0-.38.63-.23.63-.91v-7.7c0-.93-.57-.57-.57-1,0-.24.48-.19.91-.19h6.85c.17,0,.36,0,.36.32v1.07c0,.17,0,.5-.27.5s-.13-.47-.92-.47h-4.46a.25.25,0,0,0-.27.28v2.14c0,.31.07.4.33.4h2.92c.47,0,.47-.39.67-.39s.27.23.27.54v1.16c0,.4-.1.52-.3.52S319,94,318.61,94h-2.84c-.27,0-.41.11-.4.34V96.6c0,.32.16.34.43.34h4.41c.71,0,.45-.5.81-.5s.26.23.26.5v1.11c0,.2-.07.3-.24.3h-7.37c-.13,0-.56.05-.56-.17"/><path class="cls-1" d="M330,98.14c0-.4.54-.17.54-1.09V89.44c0-.77-.59-.47-.59-.88,0-.22.28-.22.4-.22h2c.16,0,.46,0,.46.25s-.56.18-.56.75v.15a.67.67,0,0,0,.15.44l3,3.63c.14.17.26.15.37,0L338.67,90a.66.66,0,0,0,.13-.43V89.3c0-.53-.45-.37-.45-.73,0-.18.17-.23.65-.23h1.59c.22,0,.44,0,.44.25s-.57.2-.58.91l0,7.41c0,1,.56.86.56,1.24,0,.2-.14.2-.56.2h-1.51c-.49,0-.62,0-.62-.24,0-.39.53-.18.53-1.09V92.7c0-.17-.16-.12-.27,0l-2.71,3.22c-.17.22-.31.19-.44,0l-2.92-3.24c-.15-.17-.23,0-.23.09l0,4.32c0,.82.55.67.55,1.06,0,.18-.23.18-.69.18H330.5c-.23,0-.46,0-.46-.21"/><path class="cls-1" d="M352.76,98.14c0-.24.46-.23.46-.73V95.17a.86.86,0,0,0-.07-.46L350,89.29c-.34-.59-.65-.33-.65-.73,0-.22.26-.22.55-.22h1.81c.23,0,.38,0,.38.22,0,.37-.57.13-.23.7L354,92.93c.07.13.17.12.24,0l2.22-3.68c.27-.45-.2-.38-.2-.69s.15-.22.37-.22h1.92c.17,0,.45,0,.45.22,0,.43-.38.13-.83.88l-3.09,5.25a.9.9,0,0,0-.13.46v2.26c0,.53.46.43.46.73s-.17.21-.44.21h-1.79c-.18,0-.43,0-.43-.21"/></g></g></svg>