<svg xmlns="http://www.w3.org/2000/svg" xmlns:xlink="http://www.w3.org/1999/xlink" viewBox="0 0 359.02 105.91"><defs><style>.cls-1{fill:none;}.cls-2{clip-path:url(#clip-path);}.cls-3{fill:#363438;}.cls-4{fill:#5e2775;}.cls-5{fill:#87ba0b;}</style><clipPath id="clip-path" transform="translate(0 0)"><rect class="cls-1" width="359.02" height="105.91"/></clipPath></defs><title>logo</title><g id="Слой_2" data-name="Слой 2"><g id="Слой_1-2" data-name="Слой 1"><g class="cls-2"><path class="cls-3" d="M140.21,63.13c0-1.15,2.46-1.15,2.46-3.61l.15-37.06c0-6.57-3-5.06-3-6.94,0-1.45,1.38-1.37,4.41-1.37h33.52c1.59,0,2.24.29,2.24,1.3v5.27c0,2.53-.43,3.39-1.37,3.39-2,0-.43-2.53-4.26-2.53H153.65c-2,0-2.24.29-2.24,1.52l-.07,12c0,.94.5,1.52,1.73,1.52h12.64c1.66,0,1.73-1.66,3.11-1.66.87,0,1.16.58,1.16,1.59V43c0,1.08-.15,2-1.16,2s-1.52-1.52-3.11-1.52h-13a1.32,1.32,0,0,0-1.37,1.37V59.52c0,2.46,2.17,2.09,2.17,3.54,0,1.66-1.23,1.66-3.83,1.66h-5.93c-2.1,0-3.54-.07-3.54-1.59" transform="translate(0 0)"/><path class="cls-3" d="M191.2,63.57c0-1.88,2.74-1,2.74-4.4V19.86c0-4.33-2.6-3-2.6-4.48,0-.87.87-1.23,2.45-1.23h8.09c1.59,0,2.67.15,2.67,1.23s-2.38.87-2.38,4.12V55.77c0,1.59.58,1.74,1.44,1.74h19.44c2.89,0,3.39-1.88,4.84-1,.58.36.36,1.81,0,2.39l-3,4.84a1.8,1.8,0,0,1-1.81,1H193.8c-1.66,0-2.6-.07-2.6-1.16" transform="translate(0 0)"/><path class="cls-3" d="M261.78,13.07c12.86.15,25.58,8.89,25.58,26.66S274.06,66.18,260.91,66c-12.79-.22-25.43-8.88-25.43-26.23,0-17.77,13.22-26.73,26.3-26.66M261.2,58.3c8.81.15,17.7-6.07,17.7-18.57s-8.6-18.86-17.19-18.93S244.15,27,244.15,39.73c0,12.21,8.45,18.42,17,18.57" transform="translate(0 0)"/><path class="cls-3" d="M356.06,14.15h-7.39c-.94,0-2.58-.07-2.58,1.08,0,2.19,2.72,1.25,1.36,4.91l-8.74,23.93c-.59,1.22-1.36,1-1.81,0L326.66,19.58c-1.33-3,1.43-2.68,1.43-4.18,0-1.25-.73-1.25-2.61-1.25H317c-1.08,0-1.81.38-1.81,1.08,0,1.88,1.43.66,3,4.63l2.47,6.44,6.41,15.08.38.87,9.72,22.33c.52,1.22,1.6,1,2,0l16.76-44.2c1.5-3.9,3.1-3.2,3.1-5,0-1.25-1.53-1.25-3-1.25" transform="translate(0 0)"/><path class="cls-3" d="M323,48.53l-2.82,7.59-3.24,8.6a.92.92,0,0,1-1.74,0L296.74,20.59c-2-4.7-3.62-3.62-3.62-5.26,0-1,.66-1.18,2.16-1.18h7.45c1.95,0,2.61.31,2.61,1.46s-2.27.94-.94,4L315,44.13l.21.45c.56.91,1.22.7,1.67-.45l2-5.08Z" transform="translate(0 0)"/><rect class="cls-3" x="140.21" y="75.29" width="218.81" height="2.48"/><path class="cls-4" d="M106,52.95a52.93,52.93,0,0,1-53,53,52.35,52.35,0,0,1-38.43-16.6,31.19,31.19,0,0,1-3-3.47A27,27,0,0,1,9.8,82.45,19.62,19.62,0,0,1,8,75.2c0-.53-.06-.92-.06-1.39v-.08A22.75,22.75,0,0,1,8.54,69a20.84,20.84,0,0,1,6.08-10.6,20.75,20.75,0,0,1,14.76-6H64.45a21.6,21.6,0,0,0,3.65-.45c.43-.1.81-.22,1.24-.35a15.07,15.07,0,0,0,1.88-.71,9.18,9.18,0,0,1,0,1.06A18.24,18.24,0,0,1,53.05,70.22H37.19a7.4,7.4,0,0,0-7.49,7.31,7.26,7.26,0,0,0,3.16,6c.25.16.49.33.76.47q.79.49,1.59.92c.41.23.82.43,1.25.63a32.91,32.91,0,0,0,5.12,2.14c1,.35,2.14.63,3.25.9a38.74,38.74,0,0,0,10,1.29A41.49,41.49,0,0,0,96.4,48.33,35.11,35.11,0,0,0,94.52,36c-.12-.33-.22-.55-.35-.9a47.22,47.22,0,0,0-3.86-8.27c-.5-.8-1.06-1.64-1.65-2.51a34.61,34.61,0,0,0-2.25-2.94c-.4-.5-.67-.8-1.08-1.23s-.63-.7-1.08-1.16A48.3,48.3,0,0,0,48.7,3.67,48.89,48.89,0,0,0,12.87,19.13a45.32,45.32,0,0,0-4.72,5.92H8.07A52.95,52.95,0,0,1,106,52.95" transform="translate(0 0)"/><path class="cls-5" d="M79.78,27.89a18.15,18.15,0,0,1-5.47,13,18.67,18.67,0,0,1-4.74,3.33l-.35.18a18.49,18.49,0,0,1-7.41,1.67H24.45c-.47,0-.92,0-1.37,0a22.22,22.22,0,0,0-9.35,2.76l-.43.24-.24.14A20.36,20.36,0,0,0,4.74,58,15.85,15.85,0,0,0,3.21,62.6,18.7,18.7,0,0,0,3,64.91c0,.67-.06,1.31,0,2,0,.26,0,.43,0,.63a24.29,24.29,0,0,0,.65,4.29c-.12-.29-.22-.57-.37-1l-.37-1.06-.06-.18L2.5,68.51a44.66,44.66,0,0,1-1.9-22L.68,46l0-.22,0-.12,0-.14A23.33,23.33,0,0,1,11,31,24.76,24.76,0,0,1,18.59,28a19.85,19.85,0,0,1,4.9-.55h49a21.38,21.38,0,0,0,3.84-.49.9.9,0,0,1,.16,0l1-.26a19.43,19.43,0,0,0,2.14-.82,14.23,14.23,0,0,1,.14,2.1" transform="translate(0 0)"/><path class="cls-3" d="M143.65,98.14c0-.24.46-.23.46-.73V95.17a.83.83,0,0,0-.07-.46l-3.17-5.42c-.34-.59-.66-.33-.66-.73,0-.21.26-.21.56-.21h1.8c.23,0,.39,0,.39.21,0,.37-.57.13-.23.7l2.17,3.68c.07.13.17.11.24,0l2.22-3.69c.27-.44-.2-.37-.2-.69s.16-.21.37-.21h1.92c.17,0,.46,0,.46.21,0,.43-.39.13-.83.89L146,94.69a.82.82,0,0,0-.13.46v2.26c0,.53.46.43.46.73s-.17.22-.44.22h-1.79c-.19,0-.43,0-.43-.22" transform="translate(0 0)"/><path class="cls-3" d="M162.68,88.13a5.24,5.24,0,1,1-5.21,5.28,5,5,0,0,1,5.21-5.28m-.11,9a3.72,3.72,0,1,0-3.37-3.67,3.42,3.42,0,0,0,3.38,3.67" transform="translate(0 0)"/><path class="cls-3" d="M176.5,94l0-4.58c0-.67-.45-.52-.45-.83s.17-.24.45-.24h1.66c.33,0,.49,0,.49.26s-.5.1-.5.84V94c0,1.62.73,3.13,2.65,3.13s2.58-1.53,2.58-3.09V89.49c0-.81-.44-.61-.44-.89s.2-.26.46-.26h1.54c.27,0,.44,0,.44.29s-.42.13-.42.86V94c0,2.83-1.34,4.56-4.16,4.56s-4.25-1.71-4.26-4.56" transform="translate(0 0)"/><path class="cls-3" d="M197,98.12c0-.26.5-.27.5-.79l0-7.21c0-.26-.06-.4-.4-.4h-1.85c-.83,0-.67.39-.94.39S194,90,194,89.57v-.9c0-.24.11-.33.37-.33h7.65c.2,0,.34.09.34.3v.8c0,.54-.09.72-.27.72s-.16-.43-.71-.43H199.6c-.26,0-.37.12-.37.39v7.24c0,.54.49.49.49.74s-.13.26-.34.26h-2c-.21,0-.36,0-.36-.23" transform="translate(0 0)"/><path class="cls-3" d="M210.7,98.14c0-.3.59-.3.59-.94V89.37c0-.69-.5-.37-.5-.82,0-.17.14-.21.63-.21h1.74c.23,0,.46,0,.46.21s-.57.23-.57.82V92c0,.43.21.47.49.49l4.49,0c.24,0,.46,0,.46-.41V89.36c0-.62-.54-.47-.54-.8s.26-.21.77-.21h1.43c.32,0,.57,0,.57.21s-.53.26-.53.76v8c0,.57.59.52.59.79s-.27.26-.76.26h-1.67c-.13,0-.44,0-.44-.17s.6-.3.6-.9l-.06-2.82c0-.3-.14-.42-.34-.42h-4.65c-.22,0-.42.07-.42.23V97.2c0,.77.64.57.64.94,0,.2-.32.22-.67.22h-1.77c-.39,0-.54,0-.54-.22" transform="translate(0 0)"/><path class="cls-3" d="M244.32,98.08c0-.36.49-.23.7-.86l2.72-7.84c.17-.51-.2-.5-.2-.77s.13-.27.34-.27H250c.23,0,.36.07.36.27s-.47.27-.27.77l3.06,7.91c.22.56.63.46.63.79s-.14.27-.54.27H251.5c-.33,0-.47,0-.47-.24,0-.41.5-.24.33-.73l-.26-.71c-.07-.2-.19-.23-.37-.23h-3.46a.4.4,0,0,0-.39.2l-.13.5c-.21.83.22.49.22,1,0,.21-.22.24-.63.24h-1.61c-.2,0-.4,0-.4-.27m6-3.06c.17,0,.2-.16.14-.31L249,90.76c-.06-.16-.19-.14-.23,0l-1.39,4c-.06.17,0,.26.2.26Z" transform="translate(0 0)"/><path class="cls-3" d="M261.19,93.29a5,5,0,0,1,5.19-5.14,4.58,4.58,0,0,1,3,.83c.34.26.62-.09.82.07s0,.39-.11.62l-.6.93c-.13.2-.24.33-.46.21s-.07-.33-.36-.59a3.15,3.15,0,0,0-2.25-.61,3.47,3.47,0,0,0-3.5,3.67,3.62,3.62,0,0,0,3.39,3.79,3.14,3.14,0,0,0,2.36-.72c.41-.41.08-.53.27-.71a.25.25,0,0,1,.4,0l1,1.2a.23.23,0,0,1,0,.36c-.14.14-.26-.07-.74.27a4.88,4.88,0,0,1-3.32,1.06,5.11,5.11,0,0,1-5.08-5.28" transform="translate(0 0)"/><path class="cls-3" d="M278,98.08c0-.36.49-.23.7-.86l2.71-7.84c.17-.51-.2-.5-.2-.77s.13-.27.34-.27h2.1c.23,0,.36.07.36.27s-.47.27-.27.77l3.06,7.91c.22.56.63.46.63.79s-.14.27-.54.27h-1.71c-.33,0-.47,0-.47-.24,0-.41.5-.24.33-.73l-.26-.71c-.07-.2-.19-.23-.37-.23h-3.46a.4.4,0,0,0-.39.2l-.13.5c-.21.83.22.49.22,1,0,.21-.22.24-.63.24h-1.61c-.2,0-.4,0-.4-.27M284,95c.17,0,.2-.16.14-.31l-1.42-3.95c-.06-.16-.19-.14-.23,0l-1.39,4c-.05.17,0,.26.2.26Z" transform="translate(0 0)"/><path class="cls-3" d="M295.56,98.07c0-.37.56-.19.56-.93V89.6c0-.87-.53-.69-.53-1s.34-.21.64-.21h4A4.62,4.62,0,0,1,305,93.28c0,2.83-1.84,5.08-4.76,5.08h-4c-.29,0-.63,0-.63-.29m4.18-1.19c2.17,0,3.5-1.14,3.5-3.63s-1.4-3.45-3.5-3.43h-1.69c-.23,0-.34.11-.34.3v6.36c0,.33.07.39.34.39Z" transform="translate(0 0)"/><path class="cls-3" d="M313.12,98.18c0-.39.63-.23.63-.91l0-7.69c0-.93-.57-.57-.57-1,0-.24.48-.19.91-.19h6.85c.17,0,.36,0,.36.32v1.07c0,.17,0,.5-.27.5s-.13-.47-.92-.47h-4.46c-.17,0-.27.09-.27.28v2.13c0,.32.07.4.33.4h2.92c.47,0,.47-.39.67-.39s.27.23.27.54v1.16c0,.4-.1.52-.3.52S319,94,318.61,94h-2.83c-.27,0-.41.11-.4.35V96.6c0,.33.16.34.43.34h4.4c.71,0,.46-.5.81-.5s.26.23.26.5v1.11c0,.2-.07.3-.24.3h-7.37c-.13,0-.56,0-.56-.17" transform="translate(0 0)"/><path class="cls-3" d="M330,98.14c0-.4.54-.17.54-1.09V89.45c0-.77-.59-.47-.59-.89,0-.21.27-.21.4-.21h2c.16,0,.46,0,.46.24s-.56.18-.56.76v.14a.7.7,0,0,0,.14.45l3,3.63c.14.17.26.14.37,0L338.67,90a.66.66,0,0,0,.13-.43V89.3c0-.53-.46-.37-.46-.73,0-.19.17-.23.66-.23h1.59c.22,0,.44,0,.44.24s-.57.2-.59.91v7.41c0,1,.56.86.56,1.24,0,.2-.14.2-.56.2h-1.52c-.48,0-.61-.06-.61-.24,0-.39.53-.18.53-1.09V92.7c0-.17-.16-.13-.27,0l-2.7,3.22c-.17.21-.32.18-.44,0l-2.92-3.23c-.16-.17-.23,0-.23.09l0,4.32c0,.82.54.67.54,1.06,0,.18-.23.18-.69.18H330.5c-.23,0-.46,0-.46-.22" transform="translate(0 0)"/><path class="cls-3" d="M352.76,98.14c0-.24.46-.23.46-.73V95.17a.86.86,0,0,0-.07-.46L350,89.29c-.34-.59-.65-.33-.65-.73,0-.21.26-.21.56-.21h1.8c.23,0,.39,0,.39.21,0,.37-.57.13-.23.7L354,92.93c.07.13.17.11.24,0l2.22-3.69c.27-.44-.2-.37-.2-.69s.16-.21.37-.21h1.92c.17,0,.45,0,.45.21,0,.43-.39.13-.83.89l-3.09,5.25a.84.84,0,0,0-.13.46v2.26c0,.53.46.43.46.73s-.17.22-.44.22h-1.79c-.19,0-.43,0-.43-.22" transform="translate(0 0)"/></g></g></g></svg>