<svg xmlns="http://www.w3.org/2000/svg" xmlns:xlink="http://www.w3.org/1999/xlink" viewBox="0 0 782.83 578.51"><defs><style>.cls-1,.cls-3{fill:none;}.cls-2{clip-path:url(#clip-path);}.cls-3{stroke:#5e2775;stroke-linecap:round;stroke-linejoin:round;stroke-width:3px;}</style><clipPath id="clip-path" transform="translate(0 0)"><rect class="cls-1" width="782.83" height="578.51"/></clipPath></defs><title>pattern</title><g id="Слой_2" data-name="Слой 2"><g id="Слой_1-2" data-name="Слой 1"><g class="cls-2"><path class="cls-3" d="M621.86,377.84a14.19,14.19,0,0,1-14.19-14.19,14.19,14.19,0,0,1-14.19,14.19A14.19,14.19,0,0,1,607.67,392,14.19,14.19,0,0,1,621.86,377.84Z" transform="translate(0 0)"/><path class="cls-3" d="M733.42,189a14.19,14.19,0,0,1-14.19-14.19A14.19,14.19,0,0,1,705,189a14.19,14.19,0,0,1,14.19,14.19A14.19,14.19,0,0,1,733.42,189Z" transform="translate(0 0)"/><path class="cls-3" d="M124.28,533a14.19,14.19,0,0,1-14.19-14.19A14.19,14.19,0,0,1,95.9,533a14.19,14.19,0,0,1,14.19,14.19A14.19,14.19,0,0,1,124.28,533Z" transform="translate(0 0)"/><path class="cls-3" d="M78.85,222.76a14.19,14.19,0,0,1-14.19-14.19,14.19,14.19,0,0,1-14.19,14.19A14.19,14.19,0,0,1,64.66,237,14.19,14.19,0,0,1,78.85,222.76Z" transform="translate(0 0)"/><path class="cls-3" d="M295.77,176.23a11.51,11.51,0,0,1-11.51-11.51,11.51,11.51,0,0,1-11.51,11.51,11.51,11.51,0,0,1,11.51,11.51A11.51,11.51,0,0,1,295.77,176.23Z" transform="translate(0 0)"/><path class="cls-3" d="M575.77,559.52A11.51,11.51,0,0,1,564.26,548a11.51,11.51,0,0,1-11.51,11.51A11.51,11.51,0,0,1,564.26,571,11.51,11.51,0,0,1,575.77,559.52Z" transform="translate(0 0)"/><path class="cls-3" d="M496.56,92.95A11.51,11.51,0,0,1,485,81.43a11.51,11.51,0,0,1-11.51,11.51A11.51,11.51,0,0,1,485,104.46,11.51,11.51,0,0,1,496.56,92.95Z" transform="translate(0 0)"/><path class="cls-3" d="M209.89,445.28a11.51,11.51,0,0,1-11.51-11.51,11.51,11.51,0,0,1-11.51,11.51,11.51,11.51,0,0,1,11.51,11.51A11.51,11.51,0,0,1,209.89,445.28Z" transform="translate(0 0)"/><circle class="cls-3" cx="762.31" cy="313.88" r="5.68"/><circle class="cls-3" cx="277.94" cy="12.85" r="5.68"/><circle class="cls-3" cx="585.53" cy="263.13" r="5.68"/><circle class="cls-3" cx="7.18" cy="265.38" r="5.68"/><circle class="cls-3" cx="603.62" cy="7.18" r="5.68"/><circle class="cls-3" cx="467.98" cy="184.22" r="5.68"/><circle class="cls-3" cx="775.65" cy="421.03" r="5.68"/><circle class="cls-3" cx="612.9" cy="534.93" r="5.68"/><circle class="cls-3" cx="164.1" cy="571.34" r="5.68"/><circle class="cls-3" cx="27.89" cy="462.09" r="5.68"/></g></g></g></svg>